<svg width="1552" height="94" viewBox="0 0 1552 94" xmlns="http://www.w3.org/2000/svg"><g id="svgGroup" stroke-linecap="round" fill-rule="evenodd" font-size="9pt" stroke="#000" stroke-width="0.25mm" fill="#000" style="stroke:#000;stroke-width:0.25mm;fill:none"><path d="M 969.3 32 L 976.8 32 L 976.8 34.3 Q 979.4 32 983 32 L 983.6 32 Q 987.927 32 990.688 33.529 A 8.521 8.521 0 0 1 993.5 36 A 10.585 10.585 0 0 1 1001.206 32.035 A 13.826 13.826 0 0 1 1002.2 32 L 1002.8 32 A 19.022 19.022 0 0 1 1006.14 32.273 Q 1009.761 32.92 1011.8 35.1 Q 1014.361 37.837 1014.66 44.318 A 38.636 38.636 0 0 1 1014.7 46.1 L 1014.7 82 L 1006.7 82 L 1006.7 46 Q 1006.7 41.9 1005.85 40.3 Q 1005 38.7 1002 38.7 L 1001.4 38.7 Q 999.352 38.7 998.166 39.656 A 3.734 3.734 0 0 0 997.25 40.75 A 9.902 9.902 0 0 0 996.017 44.989 A 11.557 11.557 0 0 0 996 45.3 L 996 82 L 988 82 L 988 46 A 27.798 27.798 0 0 0 987.941 44.121 Q 987.819 42.33 987.444 41.211 A 4.282 4.282 0 0 0 987 40.25 Q 986 38.7 983.4 38.7 L 982.8 38.7 A 8.023 8.023 0 0 0 981.274 38.835 Q 979.467 39.185 978.6 40.45 Q 977.4 42.2 977.3 44.4 L 977.3 82 L 969.3 82 L 969.3 32 Z M 1293.3 32 L 1300.8 32 L 1300.8 34.3 Q 1303.4 32 1307 32 L 1307.6 32 Q 1311.927 32 1314.688 33.529 A 8.521 8.521 0 0 1 1317.5 36 A 10.585 10.585 0 0 1 1325.206 32.035 A 13.826 13.826 0 0 1 1326.2 32 L 1326.8 32 A 19.022 19.022 0 0 1 1330.14 32.273 Q 1333.761 32.92 1335.8 35.1 Q 1338.361 37.837 1338.66 44.318 A 38.636 38.636 0 0 1 1338.7 46.1 L 1338.7 82 L 1330.7 82 L 1330.7 46 Q 1330.7 41.9 1329.85 40.3 Q 1329 38.7 1326 38.7 L 1325.4 38.7 Q 1323.352 38.7 1322.166 39.656 A 3.734 3.734 0 0 0 1321.25 40.75 A 9.902 9.902 0 0 0 1320.017 44.989 A 11.557 11.557 0 0 0 1320 45.3 L 1320 82 L 1312 82 L 1312 46 A 27.798 27.798 0 0 0 1311.941 44.121 Q 1311.819 42.33 1311.444 41.211 A 4.282 4.282 0 0 0 1311 40.25 Q 1310 38.7 1307.4 38.7 L 1306.8 38.7 A 8.023 8.023 0 0 0 1305.274 38.835 Q 1303.467 39.185 1302.6 40.45 Q 1301.4 42.2 1301.3 44.4 L 1301.3 82 L 1293.3 82 L 1293.3 32 Z M 18.5 53 L 8.7 53 L 8.7 82 L 0 82 L 0 12 L 18.8 12 A 30.805 30.805 0 0 1 23.594 12.348 Q 28.625 13.143 31.65 15.75 A 11.556 11.556 0 0 1 35.012 20.868 Q 36 23.74 36 27.6 L 36 37.2 Q 36 44.416 32.33 48.166 A 12.487 12.487 0 0 1 27 51.3 L 40.9 82 L 31.4 82 L 18.5 53 Z M 325.7 32 L 333.7 32 L 333.7 34.4 A 11.066 11.066 0 0 1 338.016 32.396 Q 339.709 32 341.7 32 L 346.3 32 A 27.475 27.475 0 0 1 350.744 32.335 Q 355.573 33.128 358.35 35.8 Q 362.3 39.6 362.3 48 L 362.3 82 L 353.8 82 L 353.8 46 A 8.322 8.322 0 0 0 353.574 44.005 A 5.762 5.762 0 0 0 352.05 41.25 A 5.821 5.821 0 0 0 349.053 39.671 A 8.54 8.54 0 0 0 347.3 39.5 L 340.7 39.5 Q 337.4 39.5 335.8 41.25 A 6.786 6.786 0 0 0 334.794 42.655 A 4.96 4.96 0 0 0 334.2 45 L 334.2 82 L 325.7 82 L 325.7 32 Z M 1405.7 32 L 1413.7 32 L 1413.7 34.4 A 11.066 11.066 0 0 1 1418.016 32.396 Q 1419.709 32 1421.7 32 L 1426.3 32 A 27.475 27.475 0 0 1 1430.744 32.335 Q 1435.573 33.128 1438.35 35.8 Q 1442.3 39.6 1442.3 48 L 1442.3 82 L 1433.8 82 L 1433.8 46 A 8.322 8.322 0 0 0 1433.574 44.005 A 5.762 5.762 0 0 0 1432.05 41.25 A 5.821 5.821 0 0 0 1429.053 39.671 A 8.54 8.54 0 0 0 1427.3 39.5 L 1420.7 39.5 Q 1417.4 39.5 1415.8 41.25 A 6.786 6.786 0 0 0 1414.794 42.655 A 4.96 4.96 0 0 0 1414.2 45 L 1414.2 82 L 1405.7 82 L 1405.7 32 Z M 453.7 82 L 450.3 82 A 27.475 27.475 0 0 1 445.856 81.665 Q 441.027 80.872 438.25 78.2 Q 434.3 74.4 434.3 66 L 434.3 32 L 442.8 32 L 442.8 68 A 8.322 8.322 0 0 0 443.026 69.995 A 5.762 5.762 0 0 0 444.55 72.75 A 5.821 5.821 0 0 0 447.547 74.329 A 8.54 8.54 0 0 0 449.3 74.5 L 454.7 74.5 A 10.182 10.182 0 0 0 456.455 74.359 Q 458.36 74.025 459.45 72.9 A 6.62 6.62 0 0 0 460.633 71.26 A 5.585 5.585 0 0 0 461.2 69.3 L 461.2 32 L 469.7 32 L 469.7 82 L 461.7 82 L 461.7 79.7 A 12.668 12.668 0 0 1 456.401 81.792 A 16.911 16.911 0 0 1 453.7 82 Z M 276.6 74.7 L 285.6 74.7 L 285.6 19.3 L 276.6 19.3 L 276.6 12 L 303.3 12 L 303.3 19.3 L 294.3 19.3 L 294.3 74.7 L 303.3 74.7 L 303.3 82 L 276.6 82 L 276.6 74.7 Z M 885.2 0 L 894 0 Q 889.419 5.535 887.115 9.385 A 35.46 35.46 0 0 0 886.9 9.75 Q 884.6 13.7 883.55 18.6 A 39.875 39.875 0 0 0 882.952 22.311 Q 882.5 26.181 882.5 31.3 L 882.5 62.7 A 95.054 95.054 0 0 0 882.624 67.72 Q 882.861 72.184 883.55 75.4 A 31.264 31.264 0 0 0 885.585 81.688 A 27.48 27.48 0 0 0 886.9 84.25 Q 889.2 88.2 894 94 L 885.2 94 Q 879.9 88.5 876.95 81.3 A 34.359 34.359 0 0 1 875.152 75.281 Q 874 69.75 874 62.5 L 874 31.5 Q 874 23.349 875.456 17.371 A 32.787 32.787 0 0 1 876.95 12.7 Q 879.9 5.5 885.2 0 Z M 1044.8 94 L 1036 94 Q 1040.581 88.465 1042.885 84.615 A 35.46 35.46 0 0 0 1043.1 84.25 Q 1045.4 80.3 1046.45 75.4 A 39.875 39.875 0 0 0 1047.048 71.689 Q 1047.5 67.819 1047.5 62.7 L 1047.5 31.3 A 95.054 95.054 0 0 0 1047.376 26.28 Q 1047.139 21.816 1046.45 18.6 A 31.264 31.264 0 0 0 1044.415 12.312 A 27.48 27.48 0 0 0 1043.1 9.75 Q 1040.8 5.8 1036 0 L 1044.8 0 Q 1050.1 5.5 1053.05 12.7 Q 1056 19.9 1056 31.5 L 1056 62.5 Q 1056 70.651 1054.544 76.629 A 32.787 32.787 0 0 1 1053.05 81.3 Q 1050.1 88.5 1044.8 94 Z M 506.2 82 L 491.3 82 L 491.3 74.5 L 507.2 74.5 A 10.134 10.134 0 0 0 508.743 74.39 Q 509.537 74.268 510.177 74.008 A 4.32 4.32 0 0 0 511.3 73.35 Q 512.7 72.2 512.7 70 L 512.7 64.7 A 6.801 6.801 0 0 0 512.494 62.947 Q 511.759 60.2 508.4 60.2 L 504.7 60.2 A 25.593 25.593 0 0 1 500.857 59.931 Q 498.897 59.633 497.323 59.003 A 10.449 10.449 0 0 1 494.25 57.15 A 9.36 9.36 0 0 1 491.636 53.137 Q 491.094 51.588 490.903 49.678 A 21.964 21.964 0 0 1 490.8 47.5 L 490.8 44.6 A 18.577 18.577 0 0 1 491.118 41.04 Q 491.898 37.047 494.6 34.95 A 12.259 12.259 0 0 1 498.282 33.04 Q 500.015 32.463 502.138 32.206 A 30.553 30.553 0 0 1 505.8 32 L 519.2 32 L 519.2 39.5 L 504.8 39.5 A 8.842 8.842 0 0 0 503.166 39.642 Q 502.213 39.821 501.458 40.227 A 4.826 4.826 0 0 0 500.8 40.65 Q 499.3 41.8 499.3 44 L 499.3 47.6 A 6.208 6.208 0 0 0 499.425 48.89 Q 499.593 49.678 499.985 50.267 A 3.291 3.291 0 0 0 500.65 51 A 4.789 4.789 0 0 0 502.774 51.976 A 6.759 6.759 0 0 0 504.1 52.1 L 507.5 52.1 A 22.124 22.124 0 0 1 511.375 52.417 Q 513.518 52.799 515.209 53.64 A 10.527 10.527 0 0 1 517.7 55.35 Q 520.817 58.245 521.158 63.638 A 21.598 21.598 0 0 1 521.2 65 L 521.2 69.5 Q 521.2 75.8 517.35 78.9 A 12.536 12.536 0 0 1 513.321 81.019 Q 511.531 81.602 509.356 81.838 A 29.221 29.221 0 0 1 506.2 82 Z M 776.2 82 L 761.3 82 L 761.3 74.5 L 777.2 74.5 A 10.134 10.134 0 0 0 778.743 74.39 Q 779.537 74.268 780.177 74.008 A 4.32 4.32 0 0 0 781.3 73.35 Q 782.7 72.2 782.7 70 L 782.7 64.7 A 6.801 6.801 0 0 0 782.494 62.947 Q 781.759 60.2 778.4 60.2 L 774.7 60.2 A 25.593 25.593 0 0 1 770.857 59.931 Q 768.897 59.633 767.323 59.003 A 10.449 10.449 0 0 1 764.25 57.15 A 9.36 9.36 0 0 1 761.636 53.137 Q 761.094 51.588 760.903 49.678 A 21.964 21.964 0 0 1 760.8 47.5 L 760.8 44.6 A 18.577 18.577 0 0 1 761.118 41.04 Q 761.898 37.047 764.6 34.95 A 12.259 12.259 0 0 1 768.282 33.04 Q 770.015 32.463 772.138 32.206 A 30.553 30.553 0 0 1 775.8 32 L 789.2 32 L 789.2 39.5 L 774.8 39.5 A 8.842 8.842 0 0 0 773.166 39.642 Q 772.213 39.821 771.458 40.227 A 4.826 4.826 0 0 0 770.8 40.65 Q 769.3 41.8 769.3 44 L 769.3 47.6 A 6.208 6.208 0 0 0 769.425 48.89 Q 769.593 49.678 769.985 50.267 A 3.291 3.291 0 0 0 770.65 51 A 4.789 4.789 0 0 0 772.774 51.976 A 6.759 6.759 0 0 0 774.1 52.1 L 777.5 52.1 A 22.124 22.124 0 0 1 781.375 52.417 Q 783.518 52.799 785.209 53.64 A 10.527 10.527 0 0 1 787.7 55.35 Q 790.817 58.245 791.158 63.638 A 21.598 21.598 0 0 1 791.2 65 L 791.2 69.5 Q 791.2 75.8 787.35 78.9 A 12.536 12.536 0 0 1 783.321 81.019 Q 781.531 81.602 779.356 81.838 A 29.221 29.221 0 0 1 776.2 82 Z M 1526.7 72 L 1526.7 19.5 L 1512 19.5 L 1512 12 L 1535.2 12 L 1535.2 71.5 A 5.043 5.043 0 0 0 1535.263 72.329 Q 1535.425 73.297 1536 73.8 Q 1536.725 74.434 1538.352 74.494 A 9.498 9.498 0 0 0 1538.7 74.5 L 1552 74.5 L 1552 82 L 1535.2 82 Q 1531.8 82 1529.25 79.6 Q 1527.25 77.718 1526.819 74.114 A 17.806 17.806 0 0 1 1526.7 72 Z M 553.2 70 L 553.2 39.5 L 543.7 39.5 L 543.7 32 L 553.2 32 L 553.2 20 L 561.7 20 L 561.7 32 L 576.3 32 L 576.3 39.5 L 561.7 39.5 L 561.7 70.5 A 6.94 6.94 0 0 0 561.778 71.577 Q 561.867 72.146 562.061 72.593 A 2.615 2.615 0 0 0 562.8 73.6 A 3.402 3.402 0 0 0 563.842 74.166 Q 564.784 74.495 566.158 74.5 A 11.697 11.697 0 0 0 566.2 74.5 L 576.3 74.5 L 576.3 82 L 563.7 82 A 12.553 12.553 0 0 1 560.486 81.612 A 8.607 8.607 0 0 1 555.9 78.7 Q 553.304 75.527 553.204 70.412 A 21.123 21.123 0 0 1 553.2 70 Z M 931.2 70 L 931.2 39.5 L 921.7 39.5 L 921.7 32 L 931.2 32 L 931.2 20 L 939.7 20 L 939.7 32 L 954.3 32 L 954.3 39.5 L 939.7 39.5 L 939.7 70.5 A 6.94 6.94 0 0 0 939.778 71.577 Q 939.867 72.146 940.061 72.593 A 2.615 2.615 0 0 0 940.8 73.6 A 3.402 3.402 0 0 0 941.842 74.166 Q 942.784 74.495 944.158 74.5 A 11.697 11.697 0 0 0 944.2 74.5 L 954.3 74.5 L 954.3 82 L 941.7 82 A 12.553 12.553 0 0 1 938.486 81.612 A 8.607 8.607 0 0 1 933.9 78.7 Q 931.304 75.527 931.204 70.412 A 21.123 21.123 0 0 1 931.2 70 Z M 1147.2 70 L 1147.2 39.5 L 1137.7 39.5 L 1137.7 32 L 1147.2 32 L 1147.2 20 L 1155.7 20 L 1155.7 32 L 1170.3 32 L 1170.3 39.5 L 1155.7 39.5 L 1155.7 70.5 A 6.94 6.94 0 0 0 1155.778 71.577 Q 1155.867 72.146 1156.061 72.593 A 2.615 2.615 0 0 0 1156.8 73.6 A 3.402 3.402 0 0 0 1157.842 74.166 Q 1158.784 74.495 1160.158 74.5 A 11.697 11.697 0 0 0 1160.2 74.5 L 1170.3 74.5 L 1170.3 82 L 1157.7 82 A 12.553 12.553 0 0 1 1154.486 81.612 A 8.607 8.607 0 0 1 1149.9 78.7 Q 1147.304 75.527 1147.204 70.412 A 21.123 21.123 0 0 1 1147.2 70 Z M 1481.1 82 L 1472.2 82 A 29.968 29.968 0 0 1 1468.26 81.76 Q 1463.903 81.18 1461.449 79.202 A 8.56 8.56 0 0 1 1461.15 78.95 A 8.834 8.834 0 0 1 1458.853 75.602 Q 1457.717 72.821 1457.7 68.629 A 31.477 31.477 0 0 1 1457.7 68.5 L 1457.7 66.5 Q 1457.7 53.316 1468.264 51.346 A 22.048 22.048 0 0 1 1472.3 51 L 1484.7 51 L 1484.7 46 A 8.114 8.114 0 0 0 1484.475 44.034 A 5.485 5.485 0 0 0 1482.8 41.2 Q 1480.9 39.5 1477.2 39.5 L 1461.7 39.5 L 1461.7 32 L 1476.2 32 A 31.686 31.686 0 0 1 1480.85 32.318 Q 1483.228 32.671 1485.135 33.42 A 12.469 12.469 0 0 1 1489.05 35.8 Q 1492.304 38.78 1493.007 44.588 A 28.463 28.463 0 0 1 1493.2 48 L 1493.2 72 A 3.097 3.097 0 0 0 1493.336 72.943 A 2.396 2.396 0 0 0 1494.35 74.25 Q 1495.322 74.884 1497.403 74.982 A 16.974 16.974 0 0 0 1498.2 75 L 1498.2 82 L 1492.7 82 A 4.977 4.977 0 0 1 1491.426 81.824 Q 1490.868 81.676 1490.27 81.404 A 9.522 9.522 0 0 1 1489.85 81.2 Q 1488.3 80.4 1487.2 79 Q 1484.956 81.927 1481.284 81.998 A 9.49 9.49 0 0 1 1481.1 82 Z M 129.5 82 L 109.5 82 L 109.5 12 L 128.3 12 Q 136.972 12 141.134 15.418 A 10.443 10.443 0 0 1 141.35 15.6 Q 145.5 19.2 145.5 27.6 L 145.5 33.3 A 17.05 17.05 0 0 1 144.854 38.132 A 12.373 12.373 0 0 1 140 44.9 A 12.01 12.01 0 0 1 146.189 53.638 A 19.333 19.333 0 0 1 146.5 57.2 L 146.5 66.2 A 29.611 29.611 0 0 1 146.221 70.416 Q 145.479 75.558 142.762 78.2 A 9.022 9.022 0 0 1 142.55 78.4 Q 138.846 81.776 130.613 81.986 A 43.626 43.626 0 0 1 129.5 82 Z M 400.5 82 L 396.4 82 A 32.875 32.875 0 0 1 391.822 81.703 Q 389.47 81.372 387.583 80.669 A 12.356 12.356 0 0 1 383.5 78.25 Q 379.4 74.5 379.4 66 L 379.4 48 A 26.97 26.97 0 0 1 379.728 43.639 Q 380.567 38.531 383.55 35.8 Q 386.613 32.995 392.154 32.261 A 32.376 32.376 0 0 1 396.4 32 L 408 32 L 408 12 L 416.5 12 L 416.5 82 L 408.5 82 L 408.5 79.7 A 12.668 12.668 0 0 1 403.201 81.792 A 16.911 16.911 0 0 1 400.5 82 Z M 597 74.5 L 604.3 74.5 L 604.3 39.5 L 597 39.5 L 597 32 L 612.3 32 L 612.3 34.7 A 11.907 11.907 0 0 1 619.006 32.053 A 15.401 15.401 0 0 1 620.3 32 L 630.6 32 L 630.6 40 L 619.3 40 A 7.92 7.92 0 0 0 617.393 40.215 A 5.111 5.111 0 0 0 614.5 42.05 A 9.186 9.186 0 0 0 613.463 43.692 A 6.421 6.421 0 0 0 612.8 46.2 L 612.8 74.5 L 623.7 74.5 L 623.7 82 L 597 82 L 597 74.5 Z M 1245 74.5 L 1252.3 74.5 L 1252.3 39.5 L 1245 39.5 L 1245 32 L 1260.3 32 L 1260.3 34.7 A 11.907 11.907 0 0 1 1267.006 32.053 A 15.401 15.401 0 0 1 1268.3 32 L 1278.6 32 L 1278.6 40 L 1267.3 40 A 7.92 7.92 0 0 0 1265.393 40.215 A 5.111 5.111 0 0 0 1262.5 42.05 A 9.186 9.186 0 0 0 1261.463 43.692 A 6.421 6.421 0 0 0 1260.8 46.2 L 1260.8 74.5 L 1271.7 74.5 L 1271.7 82 L 1245 82 L 1245 74.5 Z M 704.4 66 L 704.4 48 Q 704.4 39.864 707.712 36.113 A 9.139 9.139 0 0 1 708.1 35.7 A 10.761 10.761 0 0 1 711.826 33.339 Q 715.227 32 720.4 32 L 725.1 32 Q 730.39 32 733.765 34.193 A 10.953 10.953 0 0 1 735.85 35.95 Q 738.853 39.2 739.385 44.921 A 27.862 27.862 0 0 1 739.5 47.5 L 739.5 60.5 L 712.9 60.5 L 712.9 68 A 8.114 8.114 0 0 0 713.125 69.966 A 5.485 5.485 0 0 0 714.8 72.8 Q 716.7 74.5 720.4 74.5 L 736.3 74.5 L 736.3 82 L 721.4 82 A 32.875 32.875 0 0 1 716.822 81.703 Q 714.47 81.372 712.583 80.669 A 12.356 12.356 0 0 1 708.5 78.25 Q 704.4 74.5 704.4 66 Z M 1190.4 66 L 1190.4 48 Q 1190.4 39.864 1193.712 36.113 A 9.139 9.139 0 0 1 1194.1 35.7 A 10.761 10.761 0 0 1 1197.826 33.339 Q 1201.227 32 1206.4 32 L 1211.1 32 Q 1216.39 32 1219.765 34.193 A 10.953 10.953 0 0 1 1221.85 35.95 Q 1224.853 39.2 1225.385 44.921 A 27.862 27.862 0 0 1 1225.5 47.5 L 1225.5 60.5 L 1198.9 60.5 L 1198.9 68 A 8.114 8.114 0 0 0 1199.125 69.966 A 5.485 5.485 0 0 0 1200.8 72.8 Q 1202.7 74.5 1206.4 74.5 L 1222.3 74.5 L 1222.3 82 L 1207.4 82 A 32.875 32.875 0 0 1 1202.822 81.703 Q 1200.47 81.372 1198.583 80.669 A 12.356 12.356 0 0 1 1194.5 78.25 Q 1190.4 74.5 1190.4 66 Z M 76 82 L 72 82 Q 65.818 82 61.681 79.854 A 14.067 14.067 0 0 1 58.65 77.75 A 13.425 13.425 0 0 1 54.898 71.65 Q 54.225 69.464 54.056 66.816 A 28.627 28.627 0 0 1 54 65 L 54 29 Q 54 22.965 56.344 19.073 A 12.622 12.622 0 0 1 58.65 16.25 Q 63.3 12 72 12 L 76 12 Q 82.182 12 86.319 14.146 A 14.067 14.067 0 0 1 89.35 16.25 A 13.425 13.425 0 0 1 93.102 22.35 Q 93.775 24.536 93.944 27.184 A 28.627 28.627 0 0 1 94 29 L 94 65 Q 94 71.035 91.656 74.927 A 12.622 12.622 0 0 1 89.35 77.75 Q 84.7 82 76 82 Z M 184 82 L 180 82 Q 173.818 82 169.681 79.854 A 14.067 14.067 0 0 1 166.65 77.75 A 13.425 13.425 0 0 1 162.898 71.65 Q 162.225 69.464 162.056 66.816 A 28.627 28.627 0 0 1 162 65 L 162 29 Q 162 22.965 164.344 19.073 A 12.622 12.622 0 0 1 166.65 16.25 Q 171.3 12 180 12 L 184 12 Q 190.182 12 194.319 14.146 A 14.067 14.067 0 0 1 197.35 16.25 A 13.425 13.425 0 0 1 201.102 22.35 Q 201.775 24.536 201.944 27.184 A 28.627 28.627 0 0 1 202 29 L 202 65 Q 202 71.035 199.656 74.927 A 12.622 12.622 0 0 1 197.35 77.75 Q 192.7 82 184 82 Z M 663.7 39.5 L 649 39.5 L 649 32 L 672.2 32 L 672.2 74.5 L 687 74.5 L 687 82 L 663.7 82 L 663.7 39.5 Z M 1365.7 39.5 L 1351 39.5 L 1351 32 L 1374.2 32 L 1374.2 74.5 L 1389 74.5 L 1389 82 L 1365.7 82 L 1365.7 39.5 Z M 77 19.6 L 71 19.6 A 10.154 10.154 0 0 0 68.323 19.936 A 7.628 7.628 0 0 0 65 21.8 A 7.419 7.419 0 0 0 63.222 24.35 A 7.174 7.174 0 0 0 62.7 27.1 L 62.7 66.9 A 7.044 7.044 0 0 0 64.858 72.062 A 8.908 8.908 0 0 0 65 72.2 A 7.812 7.812 0 0 0 69.29 74.271 A 10.916 10.916 0 0 0 71 74.4 L 77 74.4 A 10.154 10.154 0 0 0 79.677 74.064 A 7.628 7.628 0 0 0 83 72.2 A 7.419 7.419 0 0 0 84.778 69.65 A 7.174 7.174 0 0 0 85.3 66.9 L 85.3 27.1 A 7.044 7.044 0 0 0 83.142 21.938 A 8.908 8.908 0 0 0 83 21.8 A 7.812 7.812 0 0 0 78.71 19.729 A 10.916 10.916 0 0 0 77 19.6 Z M 185 19.6 L 179 19.6 A 10.154 10.154 0 0 0 176.323 19.936 A 7.628 7.628 0 0 0 173 21.8 A 7.419 7.419 0 0 0 171.222 24.35 A 7.174 7.174 0 0 0 170.7 27.1 L 170.7 66.9 A 7.044 7.044 0 0 0 172.858 72.062 A 8.908 8.908 0 0 0 173 72.2 A 7.812 7.812 0 0 0 177.29 74.271 A 10.916 10.916 0 0 0 179 74.4 L 185 74.4 A 10.154 10.154 0 0 0 187.677 74.064 A 7.628 7.628 0 0 0 191 72.2 A 7.419 7.419 0 0 0 192.778 69.65 A 7.174 7.174 0 0 0 193.3 66.9 L 193.3 27.1 A 7.044 7.044 0 0 0 191.142 21.938 A 8.908 8.908 0 0 0 191 21.8 A 7.812 7.812 0 0 0 186.71 19.729 A 10.916 10.916 0 0 0 185 19.6 Z M 408 69 L 408 39.5 L 395.4 39.5 Q 392.939 39.5 391.275 40.252 A 5.731 5.731 0 0 0 389.8 41.2 A 5.54 5.54 0 0 0 388.07 44.272 A 8.337 8.337 0 0 0 387.9 46 L 387.9 68 A 8.114 8.114 0 0 0 388.125 69.966 A 5.485 5.485 0 0 0 389.8 72.8 Q 391.7 74.5 395.4 74.5 L 401.5 74.5 Q 404.8 74.5 406.4 72.75 A 6.786 6.786 0 0 0 407.406 71.345 A 4.96 4.96 0 0 0 408 69 Z M 130.5 49.1 L 118.2 49.1 L 118.2 74.5 L 130.4 74.5 A 13.077 13.077 0 0 0 132.455 74.35 Q 133.52 74.18 134.366 73.818 A 5.32 5.32 0 0 0 136 72.75 Q 137.8 71 137.8 67.2 L 137.8 56.3 A 8.795 8.795 0 0 0 137.519 54.015 A 6.362 6.362 0 0 0 135.8 51.05 A 6.732 6.732 0 0 0 132.207 49.246 A 9.577 9.577 0 0 0 130.5 49.1 Z M 20 19.5 L 8.7 19.5 L 8.7 45.5 L 20 45.5 A 13.12 13.12 0 0 0 21.975 45.362 Q 23.007 45.204 23.829 44.867 A 5.173 5.173 0 0 0 25.55 43.75 A 5.274 5.274 0 0 0 26.746 41.826 Q 27.3 40.338 27.3 38.2 L 27.3 26.7 A 13.041 13.041 0 0 0 27.162 24.729 Q 27.007 23.719 26.679 22.918 A 4.99 4.99 0 0 0 25.55 21.2 A 5.254 5.254 0 0 0 23.709 20.068 Q 22.905 19.766 21.909 19.625 A 13.613 13.613 0 0 0 20 19.5 Z M 129.5 19.5 L 118.2 19.5 L 118.2 41.6 L 129.5 41.6 A 7.917 7.917 0 0 0 132.258 41.135 A 7.049 7.049 0 0 0 134.7 39.6 A 6.665 6.665 0 0 0 136.726 35.492 A 9.324 9.324 0 0 0 136.8 34.3 L 136.8 26.7 A 13.041 13.041 0 0 0 136.662 24.729 Q 136.507 23.719 136.179 22.918 A 4.99 4.99 0 0 0 135.05 21.2 A 5.254 5.254 0 0 0 133.209 20.068 Q 132.405 19.766 131.409 19.625 A 13.613 13.613 0 0 0 129.5 19.5 Z M 1484.7 69.5 L 1484.7 58.5 L 1472.2 58.5 Q 1469.6 58.5 1467.9 60.2 Q 1466.2 61.9 1466.2 64.5 L 1466.2 69.5 A 8.962 8.962 0 0 0 1466.295 70.852 Q 1466.404 71.564 1466.638 72.13 A 3.544 3.544 0 0 0 1467.4 73.3 Q 1468.6 74.5 1471.2 74.5 L 1480.1 74.5 Q 1482.414 74.5 1483.419 73.667 A 2.063 2.063 0 0 0 1483.9 73.1 Q 1484.7 71.7 1484.7 69.5 Z M 731.2 53 L 731.2 45.5 Q 731.2 42.9 729.5 41.2 Q 727.8 39.5 725.2 39.5 L 719.4 39.5 Q 715.974 39.5 714.495 40.994 A 3.595 3.595 0 0 0 714.35 41.15 Q 713.21 42.448 712.966 44.704 A 12.091 12.091 0 0 0 712.9 46 L 712.9 53 L 731.2 53 Z M 1217.2 53 L 1217.2 45.5 Q 1217.2 42.9 1215.5 41.2 Q 1213.8 39.5 1211.2 39.5 L 1205.4 39.5 Q 1201.974 39.5 1200.495 40.994 A 3.595 3.595 0 0 0 1200.35 41.15 Q 1199.21 42.448 1198.966 44.704 A 12.091 12.091 0 0 0 1198.9 46 L 1198.9 53 L 1217.2 53 Z M 663.2 12 L 672.7 12 L 672.7 21 L 663.2 21 L 663.2 12 Z M 1365.2 12 L 1374.7 12 L 1374.7 21 L 1365.2 21 L 1365.2 12 Z" vector-effect="non-scaling-stroke"/></g></svg>
