<svg width="1567.4" height="88.6" viewBox="0 0 1567.4 88.6" xmlns="http://www.w3.org/2000/svg"><g id="svgGroup" stroke-linecap="round" fill-rule="evenodd" font-size="9pt" stroke="#000" stroke-width="0.25mm" fill="#000" style="stroke:#000;stroke-width:0.25mm;fill:none"><path d="M 1019.7 24.3 L 1019.7 33 Q 1022.5 28.8 1026.75 25.95 A 16.871 16.871 0 0 1 1035.052 23.156 A 20.954 20.954 0 0 1 1036.6 23.1 Q 1042.134 23.1 1045.836 25.45 A 12.847 12.847 0 0 1 1046.7 26.05 A 15.79 15.79 0 0 1 1051.715 32.559 A 19.746 19.746 0 0 1 1052.3 34.1 Q 1055.4 29.5 1059.65 26.3 A 15.669 15.669 0 0 1 1066.441 23.416 A 21.446 21.446 0 0 1 1070.2 23.1 A 21.325 21.325 0 0 1 1073.849 23.397 A 15.685 15.685 0 0 1 1077.55 24.5 Q 1080.7 25.9 1082.8 28.45 A 16.329 16.329 0 0 1 1085.339 32.786 A 19.878 19.878 0 0 1 1085.95 34.55 A 25.375 25.375 0 0 1 1086.852 39.28 A 31.994 31.994 0 0 1 1087 42.4 L 1087 76.3 L 1078 76.3 L 1078 43.1 A 19.042 19.042 0 0 0 1077.663 39.411 Q 1077.227 37.205 1076.228 35.461 A 10.982 10.982 0 0 0 1075.5 34.35 A 7.974 7.974 0 0 0 1069.687 31.054 A 10.678 10.678 0 0 0 1068.6 31 Q 1066.3 31 1064.2 31.9 A 16.543 16.543 0 0 0 1060.678 33.973 A 18.722 18.722 0 0 0 1060.2 34.35 A 25.622 25.622 0 0 0 1057.245 37.199 A 29.189 29.189 0 0 0 1056.6 37.95 Q 1054.9 40 1053.5 42.2 L 1053.5 76.3 L 1044.5 76.3 L 1044.5 43.1 A 19.042 19.042 0 0 0 1044.163 39.411 Q 1043.727 37.205 1042.728 35.461 A 10.982 10.982 0 0 0 1042 34.35 A 7.974 7.974 0 0 0 1036.187 31.054 A 10.678 10.678 0 0 0 1035.1 31 Q 1032.9 31 1030.8 31.85 A 16.859 16.859 0 0 0 1027.487 33.66 A 19.345 19.345 0 0 0 1026.75 34.2 Q 1024.8 35.7 1023.1 37.7 Q 1021.4 39.7 1020 41.9 L 1020 76.3 L 1011 76.3 L 1011 24.3 L 1019.7 24.3 Z M 433.9 76.3 L 402.8 18.5 L 402.8 76.3 L 393.8 76.3 L 393.8 6.3 L 406.4 6.3 L 437.3 64.5 L 437.3 6.3 L 446.3 6.3 L 446.3 76.3 L 433.9 76.3 Z M 800 76.3 L 800 6.3 L 842 6.3 L 842 14.5 L 809.5 14.5 L 809.5 35.8 L 837.5 35.8 L 837.5 43.8 L 809.5 43.8 L 809.5 68.1 L 842 68.1 L 842 76.3 L 800 76.3 Z M 573.8 48.2 L 573.8 6.3 L 583 6.3 L 583 49.3 A 40.418 40.418 0 0 1 582.508 55.747 A 31.2 31.2 0 0 1 581.15 61.15 Q 579.3 66.4 575.85 70.05 Q 572.4 73.7 567.6 75.6 Q 562.8 77.5 556.9 77.5 A 33.573 33.573 0 0 1 549.145 76.655 A 22.417 22.417 0 0 1 537.85 70.35 Q 531.907 64.147 531.12 53.163 A 48.486 48.486 0 0 1 531 49.7 L 531 6.3 L 540.5 6.3 L 540.5 48.2 A 40.543 40.543 0 0 0 540.896 54.058 Q 541.766 60.003 544.55 63.75 A 13.036 13.036 0 0 0 552.567 68.769 A 20.539 20.539 0 0 0 556.9 69.2 A 21.386 21.386 0 0 0 561.904 68.651 A 13.455 13.455 0 0 0 569.6 63.85 A 17.382 17.382 0 0 0 572.396 58.455 Q 573.186 56.036 573.531 53.094 A 42.042 42.042 0 0 0 573.8 48.2 Z M 593.5 70.4 L 598.3 62.4 Q 601.9 65.4 606.4 67.3 A 23.348 23.348 0 0 0 611.77 68.81 A 32.118 32.118 0 0 0 616.9 69.2 A 27.981 27.981 0 0 0 621.447 68.854 Q 623.87 68.454 625.831 67.593 A 13.701 13.701 0 0 0 628.3 66.2 Q 632.348 63.308 632.495 58.466 A 12.116 12.116 0 0 0 632.5 58.1 Q 632.5 56 631.9 54.2 A 7.214 7.214 0 0 0 630.938 52.33 Q 630.37 51.523 629.55 50.75 Q 628.279 49.551 626.268 48.352 A 33.644 33.644 0 0 0 624.65 47.45 A 51.221 51.221 0 0 0 622.147 46.232 Q 619.703 45.117 616.5 43.9 Q 612.366 42.292 609.198 40.714 A 55.037 55.037 0 0 1 607.35 39.75 A 29.576 29.576 0 0 1 604.346 37.88 Q 602.594 36.628 601.3 35.25 A 15.293 15.293 0 0 1 598.687 31.514 A 13.936 13.936 0 0 1 598 29.85 A 18.339 18.339 0 0 1 597.205 26.369 A 24.866 24.866 0 0 1 597 23.1 Q 597 19.4 598.55 16.1 A 15.944 15.944 0 0 1 602.591 10.817 A 18.684 18.684 0 0 1 603.15 10.35 A 20.424 20.424 0 0 1 607.265 7.811 A 26.899 26.899 0 0 1 610.65 6.5 A 29.368 29.368 0 0 1 615.731 5.408 A 39.853 39.853 0 0 1 620.8 5.1 A 52.816 52.816 0 0 1 626.501 5.393 A 38.808 38.808 0 0 1 631.9 6.35 Q 636.8 7.6 641.6 9.9 L 638.1 18 A 31.496 31.496 0 0 0 633.974 15.981 A 41.686 41.686 0 0 0 630.15 14.65 Q 625.6 13.3 620.6 13.3 A 27.711 27.711 0 0 0 616.57 13.575 Q 612.753 14.137 610.2 15.85 A 9.496 9.496 0 0 0 607.979 17.871 A 7.461 7.461 0 0 0 606.4 22.6 A 12.395 12.395 0 0 0 606.529 24.432 A 9.192 9.192 0 0 0 606.95 26.15 A 5.878 5.878 0 0 0 607.707 27.581 Q 608.127 28.174 608.719 28.751 A 11.219 11.219 0 0 0 609.15 29.15 Q 610.346 30.201 612.225 31.278 A 34.591 34.591 0 0 0 613.75 32.1 A 46.93 46.93 0 0 0 616.009 33.167 Q 618.384 34.219 621.6 35.4 A 89.068 89.068 0 0 1 626.015 37.204 Q 629.025 38.534 631.4 39.9 A 33.937 33.937 0 0 1 634.49 41.894 Q 635.992 42.99 637.167 44.147 A 19.029 19.029 0 0 1 637.8 44.8 A 17.193 17.193 0 0 1 640.224 48.117 A 14.737 14.737 0 0 1 641.25 50.4 A 18.723 18.723 0 0 1 642.197 54.809 A 22.892 22.892 0 0 1 642.3 57 Q 642.3 61.9 640.4 65.7 Q 638.5 69.5 635.15 72.15 A 21.611 21.611 0 0 1 629.972 75.152 A 26.983 26.983 0 0 1 627.1 76.15 A 34.832 34.832 0 0 1 620.259 77.368 A 41.937 41.937 0 0 1 616.9 77.5 Q 609.6 77.5 603.6 75.55 A 38.206 38.206 0 0 1 598.233 73.368 A 28.433 28.433 0 0 1 593.5 70.4 Z M 849.5 70.4 L 854.3 62.4 Q 857.9 65.4 862.4 67.3 A 23.348 23.348 0 0 0 867.77 68.81 A 32.118 32.118 0 0 0 872.9 69.2 A 27.981 27.981 0 0 0 877.447 68.854 Q 879.87 68.454 881.831 67.593 A 13.701 13.701 0 0 0 884.3 66.2 Q 888.348 63.308 888.495 58.466 A 12.116 12.116 0 0 0 888.5 58.1 Q 888.5 56 887.9 54.2 A 7.214 7.214 0 0 0 886.938 52.33 Q 886.37 51.523 885.55 50.75 Q 884.279 49.551 882.268 48.352 A 33.644 33.644 0 0 0 880.65 47.45 A 51.221 51.221 0 0 0 878.147 46.232 Q 875.703 45.117 872.5 43.9 Q 868.366 42.292 865.198 40.714 A 55.037 55.037 0 0 1 863.35 39.75 A 29.576 29.576 0 0 1 860.346 37.88 Q 858.594 36.628 857.3 35.25 A 15.293 15.293 0 0 1 854.687 31.514 A 13.936 13.936 0 0 1 854 29.85 A 18.339 18.339 0 0 1 853.205 26.369 A 24.866 24.866 0 0 1 853 23.1 Q 853 19.4 854.55 16.1 A 15.944 15.944 0 0 1 858.591 10.817 A 18.684 18.684 0 0 1 859.15 10.35 A 20.424 20.424 0 0 1 863.265 7.811 A 26.899 26.899 0 0 1 866.65 6.5 A 29.368 29.368 0 0 1 871.731 5.408 A 39.853 39.853 0 0 1 876.8 5.1 A 52.816 52.816 0 0 1 882.501 5.393 A 38.808 38.808 0 0 1 887.9 6.35 Q 892.8 7.6 897.6 9.9 L 894.1 18 A 31.496 31.496 0 0 0 889.974 15.981 A 41.686 41.686 0 0 0 886.15 14.65 Q 881.6 13.3 876.6 13.3 A 27.711 27.711 0 0 0 872.57 13.575 Q 868.753 14.137 866.2 15.85 A 9.496 9.496 0 0 0 863.979 17.871 A 7.461 7.461 0 0 0 862.4 22.6 A 12.395 12.395 0 0 0 862.529 24.432 A 9.192 9.192 0 0 0 862.95 26.15 A 5.878 5.878 0 0 0 863.707 27.581 Q 864.127 28.174 864.719 28.751 A 11.219 11.219 0 0 0 865.15 29.15 Q 866.346 30.201 868.225 31.278 A 34.591 34.591 0 0 0 869.75 32.1 A 46.93 46.93 0 0 0 872.009 33.167 Q 874.384 34.219 877.6 35.4 A 89.068 89.068 0 0 1 882.015 37.204 Q 885.025 38.534 887.4 39.9 A 33.937 33.937 0 0 1 890.49 41.894 Q 891.992 42.99 893.167 44.147 A 19.029 19.029 0 0 1 893.8 44.8 A 17.193 17.193 0 0 1 896.224 48.117 A 14.737 14.737 0 0 1 897.25 50.4 A 18.723 18.723 0 0 1 898.197 54.809 A 22.892 22.892 0 0 1 898.3 57 Q 898.3 61.9 896.4 65.7 Q 894.5 69.5 891.15 72.15 A 21.611 21.611 0 0 1 885.972 75.152 A 26.983 26.983 0 0 1 883.1 76.15 A 34.832 34.832 0 0 1 876.259 77.368 A 41.937 41.937 0 0 1 872.9 77.5 Q 865.6 77.5 859.6 75.55 A 38.206 38.206 0 0 1 854.233 73.368 A 28.433 28.433 0 0 1 849.5 70.4 Z M 1253.2 70.4 L 1258 62.4 Q 1261.6 65.4 1266.1 67.3 A 23.348 23.348 0 0 0 1271.47 68.81 A 32.118 32.118 0 0 0 1276.6 69.2 A 27.981 27.981 0 0 0 1281.147 68.854 Q 1283.57 68.454 1285.531 67.593 A 13.701 13.701 0 0 0 1288 66.2 Q 1292.048 63.308 1292.195 58.466 A 12.116 12.116 0 0 0 1292.2 58.1 Q 1292.2 56 1291.6 54.2 A 7.214 7.214 0 0 0 1290.638 52.33 Q 1290.07 51.523 1289.25 50.75 Q 1287.979 49.551 1285.968 48.352 A 33.644 33.644 0 0 0 1284.35 47.45 A 51.221 51.221 0 0 0 1281.847 46.232 Q 1279.403 45.117 1276.2 43.9 Q 1272.066 42.292 1268.898 40.714 A 55.037 55.037 0 0 1 1267.05 39.75 A 29.576 29.576 0 0 1 1264.046 37.88 Q 1262.294 36.628 1261 35.25 A 15.293 15.293 0 0 1 1258.387 31.514 A 13.936 13.936 0 0 1 1257.7 29.85 A 18.339 18.339 0 0 1 1256.905 26.369 A 24.866 24.866 0 0 1 1256.7 23.1 Q 1256.7 19.4 1258.25 16.1 A 15.944 15.944 0 0 1 1262.291 10.817 A 18.684 18.684 0 0 1 1262.85 10.35 A 20.424 20.424 0 0 1 1266.965 7.811 A 26.899 26.899 0 0 1 1270.35 6.5 A 29.368 29.368 0 0 1 1275.431 5.408 A 39.853 39.853 0 0 1 1280.5 5.1 A 52.816 52.816 0 0 1 1286.201 5.393 A 38.808 38.808 0 0 1 1291.6 6.35 Q 1296.5 7.6 1301.3 9.9 L 1297.8 18 A 31.496 31.496 0 0 0 1293.674 15.981 A 41.686 41.686 0 0 0 1289.85 14.65 Q 1285.3 13.3 1280.3 13.3 A 27.711 27.711 0 0 0 1276.27 13.575 Q 1272.453 14.137 1269.9 15.85 A 9.496 9.496 0 0 0 1267.679 17.871 A 7.461 7.461 0 0 0 1266.1 22.6 A 12.395 12.395 0 0 0 1266.229 24.432 A 9.192 9.192 0 0 0 1266.65 26.15 A 5.878 5.878 0 0 0 1267.407 27.581 Q 1267.827 28.174 1268.419 28.751 A 11.219 11.219 0 0 0 1268.85 29.15 Q 1270.046 30.201 1271.925 31.278 A 34.591 34.591 0 0 0 1273.45 32.1 A 46.93 46.93 0 0 0 1275.709 33.167 Q 1278.084 34.219 1281.3 35.4 A 89.068 89.068 0 0 1 1285.715 37.204 Q 1288.725 38.534 1291.1 39.9 A 33.937 33.937 0 0 1 1294.19 41.894 Q 1295.692 42.99 1296.867 44.147 A 19.029 19.029 0 0 1 1297.5 44.8 A 17.193 17.193 0 0 1 1299.924 48.117 A 14.737 14.737 0 0 1 1300.95 50.4 A 18.723 18.723 0 0 1 1301.897 54.809 A 22.892 22.892 0 0 1 1302 57 Q 1302 61.9 1300.1 65.7 Q 1298.2 69.5 1294.85 72.15 A 21.611 21.611 0 0 1 1289.672 75.152 A 26.983 26.983 0 0 1 1286.8 76.15 A 34.832 34.832 0 0 1 1279.959 77.368 A 41.937 41.937 0 0 1 1276.6 77.5 Q 1269.3 77.5 1263.3 75.55 A 38.206 38.206 0 0 1 1257.933 73.368 A 28.433 28.433 0 0 1 1253.2 70.4 Z M 49.7 73.3 L 40.8 77.5 L 32.1 58.5 A 30.586 30.586 0 0 0 29.509 53.926 Q 27.003 50.322 23.8 48.4 Q 19.445 45.787 12.964 45.45 A 37.847 37.847 0 0 0 11 45.4 L 9.5 45.4 L 9.5 76.3 L 0 76.3 L 0 6.5 Q 5.4 6 10.15 5.75 Q 14.9 5.5 20.5 5.5 A 51.439 51.439 0 0 1 25.794 5.758 Q 28.399 6.028 30.67 6.58 A 29.796 29.796 0 0 1 31.7 6.85 A 27.344 27.344 0 0 1 35.785 8.339 A 19.912 19.912 0 0 1 39.7 10.7 Q 42.9 13.2 44.55 16.6 Q 46.2 20 46.2 24.1 A 19.88 19.88 0 0 1 45.549 29.32 A 14.672 14.672 0 0 1 41.85 35.85 Q 37.5 40.3 29.3 42.5 Q 31.3 43.4 33 44.55 Q 34.7 45.7 36.2 47.35 Q 37.7 49 39.15 51.3 A 35.914 35.914 0 0 1 40.245 53.166 Q 41.163 54.837 42.1 56.9 L 49.7 73.3 Z M 760.5 73.3 L 751.6 77.5 L 742.9 58.5 A 30.586 30.586 0 0 0 740.309 53.926 Q 737.803 50.322 734.6 48.4 Q 730.245 45.787 723.764 45.45 A 37.847 37.847 0 0 0 721.8 45.4 L 720.3 45.4 L 720.3 76.3 L 710.8 76.3 L 710.8 6.5 Q 716.2 6 720.95 5.75 Q 725.7 5.5 731.3 5.5 A 51.439 51.439 0 0 1 736.594 5.758 Q 739.199 6.028 741.47 6.58 A 29.796 29.796 0 0 1 742.5 6.85 A 27.344 27.344 0 0 1 746.585 8.339 A 19.912 19.912 0 0 1 750.5 10.7 Q 753.7 13.2 755.35 16.6 Q 757 20 757 24.1 A 19.88 19.88 0 0 1 756.349 29.32 A 14.672 14.672 0 0 1 752.65 35.85 Q 748.3 40.3 740.1 42.5 Q 742.1 43.4 743.8 44.55 Q 745.5 45.7 747 47.35 Q 748.5 49 749.95 51.3 A 35.914 35.914 0 0 1 751.045 53.166 Q 751.963 54.837 752.9 56.9 L 760.5 73.3 Z M 1501.2 73.3 L 1492.3 77.5 L 1483.6 58.5 A 30.586 30.586 0 0 0 1481.009 53.926 Q 1478.503 50.322 1475.3 48.4 Q 1470.945 45.787 1464.464 45.45 A 37.847 37.847 0 0 0 1462.5 45.4 L 1461 45.4 L 1461 76.3 L 1451.5 76.3 L 1451.5 6.5 Q 1456.9 6 1461.65 5.75 Q 1466.4 5.5 1472 5.5 A 51.439 51.439 0 0 1 1477.294 5.758 Q 1479.899 6.028 1482.17 6.58 A 29.796 29.796 0 0 1 1483.2 6.85 A 27.344 27.344 0 0 1 1487.285 8.339 A 19.912 19.912 0 0 1 1491.2 10.7 Q 1494.4 13.2 1496.05 16.6 Q 1497.7 20 1497.7 24.1 A 19.88 19.88 0 0 1 1497.049 29.32 A 14.672 14.672 0 0 1 1493.35 35.85 Q 1489 40.3 1480.8 42.5 Q 1482.8 43.4 1484.5 44.55 Q 1486.2 45.7 1487.7 47.35 Q 1489.2 49 1490.65 51.3 A 35.914 35.914 0 0 1 1491.745 53.166 Q 1492.663 54.837 1493.6 56.9 L 1501.2 73.3 Z M 244.3 64.9 L 247.2 72.8 A 37.561 37.561 0 0 1 242.705 74.844 A 47.894 47.894 0 0 1 238.75 76.15 A 33.592 33.592 0 0 1 233.785 77.141 Q 231.303 77.455 228.506 77.494 A 57.414 57.414 0 0 1 227.7 77.5 A 32.995 32.995 0 0 1 219.947 76.619 A 28.104 28.104 0 0 1 215.15 75 Q 209.5 72.5 205.4 67.85 Q 201.3 63.2 199.05 56.55 A 41.976 41.976 0 0 1 197.171 48.071 A 54.408 54.408 0 0 1 196.8 41.6 A 49.695 49.695 0 0 1 197.593 32.558 A 41.367 41.367 0 0 1 199.05 26.9 A 35.774 35.774 0 0 1 202.788 18.989 A 31.258 31.258 0 0 1 205.5 15.35 Q 209.7 10.5 215.65 7.8 A 30.352 30.352 0 0 1 225.334 5.269 A 36.94 36.94 0 0 1 228.9 5.1 A 47.013 47.013 0 0 1 233.666 5.33 A 34.567 34.567 0 0 1 238.05 6.05 Q 242.1 7 245.7 8.7 L 242.8 16.7 Q 239.7 15.2 236.45 14.3 Q 233.657 13.527 230.015 13.418 A 40.705 40.705 0 0 0 228.8 13.4 A 21.835 21.835 0 0 0 221.727 14.529 A 20.396 20.396 0 0 0 219.9 15.25 Q 215.8 17.1 212.8 20.7 A 23.93 23.93 0 0 0 209.444 26.093 A 30.168 30.168 0 0 0 208.15 29.45 Q 206.5 34.6 206.5 41.2 A 41.653 41.653 0 0 0 206.993 47.747 A 33.093 33.093 0 0 0 208.15 52.65 A 30.164 30.164 0 0 0 210.418 57.985 A 24.704 24.704 0 0 0 212.75 61.5 Q 215.7 65.2 219.8 67.2 A 20.009 20.009 0 0 0 227.888 69.182 A 23.478 23.478 0 0 0 228.8 69.2 A 35.165 35.165 0 0 0 232.771 68.988 Q 234.783 68.759 236.515 68.283 A 19.903 19.903 0 0 0 237.3 68.05 Q 240.9 66.9 244.3 64.9 Z M 1359.5 64.9 L 1362.4 72.8 A 37.561 37.561 0 0 1 1357.905 74.844 A 47.894 47.894 0 0 1 1353.95 76.15 A 33.592 33.592 0 0 1 1348.985 77.141 Q 1346.503 77.455 1343.706 77.494 A 57.414 57.414 0 0 1 1342.9 77.5 A 32.995 32.995 0 0 1 1335.147 76.619 A 28.104 28.104 0 0 1 1330.35 75 Q 1324.7 72.5 1320.6 67.85 Q 1316.5 63.2 1314.25 56.55 A 41.976 41.976 0 0 1 1312.371 48.071 A 54.408 54.408 0 0 1 1312 41.6 A 49.695 49.695 0 0 1 1312.793 32.558 A 41.367 41.367 0 0 1 1314.25 26.9 A 35.774 35.774 0 0 1 1317.988 18.989 A 31.258 31.258 0 0 1 1320.7 15.35 Q 1324.9 10.5 1330.85 7.8 A 30.352 30.352 0 0 1 1340.534 5.269 A 36.94 36.94 0 0 1 1344.1 5.1 A 47.013 47.013 0 0 1 1348.866 5.33 A 34.567 34.567 0 0 1 1353.25 6.05 Q 1357.3 7 1360.9 8.7 L 1358 16.7 Q 1354.9 15.2 1351.65 14.3 Q 1348.857 13.527 1345.215 13.418 A 40.705 40.705 0 0 0 1344 13.4 A 21.835 21.835 0 0 0 1336.927 14.529 A 20.396 20.396 0 0 0 1335.1 15.25 Q 1331 17.1 1328 20.7 A 23.93 23.93 0 0 0 1324.644 26.093 A 30.168 30.168 0 0 0 1323.35 29.45 Q 1321.7 34.6 1321.7 41.2 A 41.653 41.653 0 0 0 1322.193 47.747 A 33.093 33.093 0 0 0 1323.35 52.65 A 30.164 30.164 0 0 0 1325.618 57.985 A 24.704 24.704 0 0 0 1327.95 61.5 Q 1330.9 65.2 1335 67.2 A 20.009 20.009 0 0 0 1343.088 69.182 A 23.478 23.478 0 0 0 1344 69.2 A 35.165 35.165 0 0 0 1347.971 68.988 Q 1349.983 68.759 1351.715 68.283 A 19.903 19.903 0 0 0 1352.5 68.05 Q 1356.1 66.9 1359.5 64.9 Z M 648.3 14.7 L 648.3 6.3 L 700.8 6.3 L 700.8 14.7 L 679.3 14.7 L 679.3 76.3 L 669.8 76.3 L 669.8 14.7 L 648.3 14.7 Z M 137.8 76.1 L 137.8 6.5 A 110.94 110.94 0 0 1 140.657 6.214 Q 143.231 5.987 146.45 5.8 A 164.369 164.369 0 0 1 151.272 5.595 Q 153.749 5.524 156.52 5.506 A 292.75 292.75 0 0 1 158.4 5.5 A 55.652 55.652 0 0 1 165.786 5.957 Q 169.481 6.453 172.497 7.488 A 22.517 22.517 0 0 1 178.15 10.3 A 16.261 16.261 0 0 1 182.833 15.189 Q 184.797 18.439 184.981 22.624 A 19.927 19.927 0 0 1 185 23.5 A 17.88 17.88 0 0 1 184.465 27.98 A 13.634 13.634 0 0 1 182.1 32.9 Q 179.475 36.34 174.555 38.715 A 31.946 31.946 0 0 1 173.5 39.2 A 30.672 30.672 0 0 1 178.136 41.253 Q 181.613 43.175 183.8 45.8 A 14.932 14.932 0 0 1 187.081 53.281 A 20.14 20.14 0 0 1 187.3 56.3 A 19.849 19.849 0 0 1 185.974 63.688 Q 184.185 68.191 179.984 71.399 A 22.52 22.52 0 0 1 179.85 71.5 A 24.359 24.359 0 0 1 172.65 75.126 Q 169.314 76.205 165.245 76.695 A 60.821 60.821 0 0 1 158 77.1 A 266.158 266.158 0 0 1 149.92 76.982 A 224.863 224.863 0 0 1 146.45 76.85 A 138.2 138.2 0 0 1 143.263 76.669 Q 140 76.444 137.8 76.1 Z M 973.5 26.2 L 975.4 9.8 L 982.3 9.8 L 982.3 26.2 L 996.7 26.2 L 996.7 34 L 982.3 34 L 982.3 59.1 A 21.675 21.675 0 0 0 982.391 61.148 Q 982.487 62.149 982.681 63.013 A 11.029 11.029 0 0 0 982.95 64 Q 983.6 66 984.7 67.2 Q 985.8 68.4 987.35 68.95 Q 988.9 69.5 990.6 69.5 A 13.893 13.893 0 0 0 994.464 68.972 A 12.868 12.868 0 0 0 995.3 68.7 Q 997.5 67.9 999.5 66.8 L 1002 74 A 18.546 18.546 0 0 1 1000.382 74.856 Q 999.58 75.235 998.634 75.608 A 43.365 43.365 0 0 1 996.6 76.35 Q 993.2 77.5 989.5 77.5 A 18.502 18.502 0 0 1 984.318 76.811 A 13.951 13.951 0 0 1 977.65 72.6 A 15.787 15.787 0 0 1 974.474 66.876 Q 973.704 64.484 973.439 61.581 A 35.038 35.038 0 0 1 973.3 58.4 L 973.3 34 L 964.3 34 L 964.3 26.2 L 973.5 26.2 Z M 464.3 76.1 L 464.3 6.5 Q 469 6 473.5 5.75 A 151.31 151.31 0 0 1 477.686 5.579 Q 480.538 5.5 483.8 5.5 A 48.65 48.65 0 0 1 490.949 5.998 Q 495.542 6.681 499.3 8.3 A 31.116 31.116 0 0 1 507.041 13.01 A 27.99 27.99 0 0 1 510.1 16 Q 514.4 20.9 516.45 27.4 A 45.124 45.124 0 0 1 518.48 39.782 A 51.177 51.177 0 0 1 518.5 41.2 A 45.458 45.458 0 0 1 516.79 53.764 A 42.542 42.542 0 0 1 516.4 55.05 Q 514.3 61.6 509.95 66.5 Q 505.6 71.4 498.85 74.25 Q 492.575 76.9 484.009 77.086 A 60.192 60.192 0 0 1 482.7 77.1 Q 478.336 77.1 474.822 76.953 A 121.597 121.597 0 0 1 472.75 76.85 Q 468.5 76.6 464.3 76.1 Z M 1163.5 76.1 L 1163.5 6.5 Q 1168.2 6 1172.7 5.75 A 151.31 151.31 0 0 1 1176.886 5.579 Q 1179.738 5.5 1183 5.5 A 48.65 48.65 0 0 1 1190.149 5.998 Q 1194.742 6.681 1198.5 8.3 A 31.116 31.116 0 0 1 1206.241 13.01 A 27.99 27.99 0 0 1 1209.3 16 Q 1213.6 20.9 1215.65 27.4 A 45.124 45.124 0 0 1 1217.68 39.782 A 51.177 51.177 0 0 1 1217.7 41.2 A 45.458 45.458 0 0 1 1215.99 53.764 A 42.542 42.542 0 0 1 1215.6 55.05 Q 1213.5 61.6 1209.15 66.5 Q 1204.8 71.4 1198.05 74.25 Q 1191.775 76.9 1183.209 77.086 A 60.192 60.192 0 0 1 1181.9 77.1 Q 1177.536 77.1 1174.022 76.953 A 121.597 121.597 0 0 1 1171.95 76.85 Q 1167.7 76.6 1163.5 76.1 Z M 1513.2 76.1 L 1513.2 6.5 Q 1517.9 6 1522.4 5.75 A 151.31 151.31 0 0 1 1526.586 5.579 Q 1529.438 5.5 1532.7 5.5 A 48.65 48.65 0 0 1 1539.849 5.998 Q 1544.442 6.681 1548.2 8.3 A 31.116 31.116 0 0 1 1555.941 13.01 A 27.99 27.99 0 0 1 1559 16 Q 1563.3 20.9 1565.35 27.4 A 45.124 45.124 0 0 1 1567.38 39.782 A 51.177 51.177 0 0 1 1567.4 41.2 A 45.458 45.458 0 0 1 1565.69 53.764 A 42.542 42.542 0 0 1 1565.3 55.05 Q 1563.2 61.6 1558.85 66.5 Q 1554.5 71.4 1547.75 74.25 Q 1541.475 76.9 1532.909 77.086 A 60.192 60.192 0 0 1 1531.6 77.1 Q 1527.236 77.1 1523.722 76.953 A 121.597 121.597 0 0 1 1521.65 76.85 Q 1517.4 76.6 1513.2 76.1 Z M 58.669 31.567 A 46.437 46.437 0 0 0 57.7 41.2 A 48.913 48.913 0 0 0 57.735 43.061 A 42.769 42.769 0 0 0 59.95 55.3 A 39.376 39.376 0 0 0 60.389 56.523 A 34.353 34.353 0 0 0 66.45 66.85 Q 70.7 71.8 76.8 74.65 A 29.142 29.142 0 0 0 83.108 76.742 A 36.51 36.51 0 0 0 90.7 77.5 A 38.35 38.35 0 0 0 95.862 77.163 A 30.074 30.074 0 0 0 104.6 74.65 Q 110.7 71.8 115 66.85 Q 119.3 61.9 121.55 55.3 Q 123.8 48.7 123.8 41.2 Q 123.8 33.7 121.5 27.15 A 39.664 39.664 0 0 0 121.052 25.936 A 34.562 34.562 0 0 0 114.95 15.7 Q 110.7 10.8 104.55 7.95 A 29.531 29.531 0 0 0 98.765 5.977 A 35.739 35.739 0 0 0 90.7 5.1 A 39.631 39.631 0 0 0 85.426 5.44 A 30.859 30.859 0 0 0 76.8 7.85 Q 70.7 10.6 66.45 15.45 A 31.476 31.476 0 0 0 64.218 18.317 A 34.76 34.76 0 0 0 59.95 26.9 A 40.316 40.316 0 0 0 58.669 31.567 Z M 257.169 31.567 A 46.437 46.437 0 0 0 256.2 41.2 A 48.913 48.913 0 0 0 256.235 43.061 A 42.769 42.769 0 0 0 258.45 55.3 A 39.376 39.376 0 0 0 258.889 56.523 A 34.353 34.353 0 0 0 264.95 66.85 Q 269.2 71.8 275.3 74.65 A 29.142 29.142 0 0 0 281.608 76.742 A 36.51 36.51 0 0 0 289.2 77.5 A 38.35 38.35 0 0 0 294.362 77.163 A 30.074 30.074 0 0 0 303.1 74.65 Q 309.2 71.8 313.5 66.85 Q 317.8 61.9 320.05 55.3 Q 322.3 48.7 322.3 41.2 Q 322.3 33.7 320 27.15 A 39.664 39.664 0 0 0 319.552 25.936 A 34.562 34.562 0 0 0 313.45 15.7 Q 309.2 10.8 303.05 7.95 A 29.531 29.531 0 0 0 297.265 5.977 A 35.739 35.739 0 0 0 289.2 5.1 A 39.631 39.631 0 0 0 283.926 5.44 A 30.859 30.859 0 0 0 275.3 7.85 Q 269.2 10.6 264.95 15.45 A 31.476 31.476 0 0 0 262.718 18.317 A 34.76 34.76 0 0 0 258.45 26.9 A 40.316 40.316 0 0 0 257.169 31.567 Z M 1372.369 31.567 A 46.437 46.437 0 0 0 1371.4 41.2 A 48.913 48.913 0 0 0 1371.435 43.061 A 42.769 42.769 0 0 0 1373.65 55.3 A 39.376 39.376 0 0 0 1374.089 56.523 A 34.353 34.353 0 0 0 1380.15 66.85 Q 1384.4 71.8 1390.5 74.65 A 29.142 29.142 0 0 0 1396.808 76.742 A 36.51 36.51 0 0 0 1404.4 77.5 A 38.35 38.35 0 0 0 1409.562 77.163 A 30.074 30.074 0 0 0 1418.3 74.65 Q 1424.4 71.8 1428.7 66.85 Q 1433 61.9 1435.25 55.3 Q 1437.5 48.7 1437.5 41.2 Q 1437.5 33.7 1435.2 27.15 A 39.664 39.664 0 0 0 1434.752 25.936 A 34.562 34.562 0 0 0 1428.65 15.7 Q 1424.4 10.8 1418.25 7.95 A 29.531 29.531 0 0 0 1412.465 5.977 A 35.739 35.739 0 0 0 1404.4 5.1 A 39.631 39.631 0 0 0 1399.126 5.44 A 30.859 30.859 0 0 0 1390.5 7.85 Q 1384.4 10.6 1380.15 15.45 A 31.476 31.476 0 0 0 1377.918 18.317 A 34.76 34.76 0 0 0 1373.65 26.9 A 40.316 40.316 0 0 0 1372.369 31.567 Z M 1100.3 3 L 1105.6 0 Q 1108.7 5.3 1111.15 10.5 Q 1113.6 15.7 1115.3 21.15 Q 1117 26.6 1117.9 32.35 A 76.621 76.621 0 0 1 1118.795 43.334 A 84.702 84.702 0 0 1 1118.8 44.3 Q 1118.8 56 1115.35 66.75 A 109.704 109.704 0 0 1 1109.428 81.353 A 132.372 132.372 0 0 1 1105.6 88.6 L 1100.3 85.6 A 117.916 117.916 0 0 0 1105.143 72.319 A 138.02 138.02 0 0 0 1106.7 66.7 A 83.339 83.339 0 0 0 1108.931 53.213 A 104.497 104.497 0 0 0 1109.3 44.3 A 100.751 100.751 0 0 0 1108.477 31.176 A 81.853 81.853 0 0 0 1106.7 21.8 A 124.015 124.015 0 0 0 1103.007 9.7 A 101.783 101.783 0 0 0 1100.3 3 Z M 957.5 85.6 L 952.2 88.6 A 124.983 124.983 0 0 1 945.438 74.862 A 104.096 104.096 0 0 1 942.45 66.75 Q 939 56 939 44.3 A 77.487 77.487 0 0 1 940.617 28.229 A 67.59 67.59 0 0 1 942.5 21.2 A 104.899 104.899 0 0 1 949.97 3.945 A 119.258 119.258 0 0 1 952.2 0 L 957.5 3 A 106.77 106.77 0 0 0 953.219 14.328 A 130.339 130.339 0 0 0 951.1 21.8 Q 948.5 32.1 948.5 44.3 A 100.023 100.023 0 0 0 949.323 57.392 A 80.136 80.136 0 0 0 951.1 66.7 A 129.325 129.325 0 0 0 955.242 80.016 A 110.922 110.922 0 0 0 957.5 85.6 Z M 67.4 41.2 Q 67.4 46.6 68.95 51.7 A 28.9 28.9 0 0 0 71.927 58.411 A 26.021 26.021 0 0 0 73.5 60.7 Q 76.5 64.6 80.85 66.95 A 19.631 19.631 0 0 0 88.349 69.188 A 24.113 24.113 0 0 0 90.7 69.3 A 26.486 26.486 0 0 0 95.819 68.828 A 20.027 20.027 0 0 0 100.85 67.15 Q 105.2 65 108.15 61.25 A 24.679 24.679 0 0 0 111.642 55.136 A 30.056 30.056 0 0 0 112.6 52.35 A 37.865 37.865 0 0 0 113.981 44.508 A 45.286 45.286 0 0 0 114.1 41.2 Q 114.1 35.8 112.5 30.8 A 29.351 29.351 0 0 0 108.847 23.209 A 27.264 27.264 0 0 0 107.9 21.9 Q 104.9 18 100.55 15.65 A 19.631 19.631 0 0 0 93.051 13.412 A 24.113 24.113 0 0 0 90.7 13.3 Q 85.2 13.3 80.85 15.45 Q 76.5 17.6 73.5 21.35 A 25.203 25.203 0 0 0 69.756 27.884 A 30.211 30.211 0 0 0 68.95 30.2 Q 67.4 35.3 67.4 41.2 Z M 265.9 41.2 Q 265.9 46.6 267.45 51.7 A 28.9 28.9 0 0 0 270.427 58.411 A 26.021 26.021 0 0 0 272 60.7 Q 275 64.6 279.35 66.95 A 19.631 19.631 0 0 0 286.849 69.188 A 24.113 24.113 0 0 0 289.2 69.3 A 26.486 26.486 0 0 0 294.319 68.828 A 20.027 20.027 0 0 0 299.35 67.15 Q 303.7 65 306.65 61.25 A 24.679 24.679 0 0 0 310.142 55.136 A 30.056 30.056 0 0 0 311.1 52.35 A 37.865 37.865 0 0 0 312.481 44.508 A 45.286 45.286 0 0 0 312.6 41.2 Q 312.6 35.8 311 30.8 A 29.351 29.351 0 0 0 307.347 23.209 A 27.264 27.264 0 0 0 306.4 21.9 Q 303.4 18 299.05 15.65 A 19.631 19.631 0 0 0 291.551 13.412 A 24.113 24.113 0 0 0 289.2 13.3 Q 283.7 13.3 279.35 15.45 Q 275 17.6 272 21.35 A 25.203 25.203 0 0 0 268.256 27.884 A 30.211 30.211 0 0 0 267.45 30.2 Q 265.9 35.3 265.9 41.2 Z M 1381.1 41.2 Q 1381.1 46.6 1382.65 51.7 A 28.9 28.9 0 0 0 1385.627 58.411 A 26.021 26.021 0 0 0 1387.2 60.7 Q 1390.2 64.6 1394.55 66.95 A 19.631 19.631 0 0 0 1402.049 69.188 A 24.113 24.113 0 0 0 1404.4 69.3 A 26.486 26.486 0 0 0 1409.519 68.828 A 20.027 20.027 0 0 0 1414.55 67.15 Q 1418.9 65 1421.85 61.25 A 24.679 24.679 0 0 0 1425.342 55.136 A 30.056 30.056 0 0 0 1426.3 52.35 A 37.865 37.865 0 0 0 1427.681 44.508 A 45.286 45.286 0 0 0 1427.8 41.2 Q 1427.8 35.8 1426.2 30.8 A 29.351 29.351 0 0 0 1422.547 23.209 A 27.264 27.264 0 0 0 1421.6 21.9 Q 1418.6 18 1414.25 15.65 A 19.631 19.631 0 0 0 1406.751 13.412 A 24.113 24.113 0 0 0 1404.4 13.3 Q 1398.9 13.3 1394.55 15.45 Q 1390.2 17.6 1387.2 21.35 A 25.203 25.203 0 0 0 1383.456 27.884 A 30.211 30.211 0 0 0 1382.65 30.2 Q 1381.1 35.3 1381.1 41.2 Z M 375.8 76.3 L 366.3 76.3 L 366.3 6.3 L 375.8 6.3 L 375.8 76.3 Z M 782 76.3 L 772.5 76.3 L 772.5 6.3 L 782 6.3 L 782 76.3 Z M 1241.2 76.3 L 1231.7 76.3 L 1231.7 6.3 L 1241.2 6.3 L 1241.2 76.3 Z M 473.8 14.2 L 473.8 68.3 Q 475.9 68.6 478.2 68.7 A 107.265 107.265 0 0 0 481.763 68.794 A 121.297 121.297 0 0 0 483 68.8 A 36.818 36.818 0 0 0 488.518 68.408 Q 491.844 67.903 494.6 66.75 A 22.642 22.642 0 0 0 499.922 63.657 A 19.769 19.769 0 0 0 502.65 61.05 A 22.682 22.682 0 0 0 506.736 54.045 A 26.898 26.898 0 0 0 507.3 52.35 A 35.959 35.959 0 0 0 508.589 45.627 A 45.132 45.132 0 0 0 508.8 41.2 A 35.493 35.493 0 0 0 507.3 30.85 Q 505.8 25.9 502.7 22.05 A 21.631 21.631 0 0 0 495.685 16.386 A 25.328 25.328 0 0 0 494.8 15.95 A 23.096 23.096 0 0 0 488.862 14.131 A 31.81 31.81 0 0 0 483.5 13.7 Q 480.6 13.7 478.2 13.85 Q 475.8 14 473.8 14.2 Z M 1173 14.2 L 1173 68.3 Q 1175.1 68.6 1177.4 68.7 A 107.265 107.265 0 0 0 1180.963 68.794 A 121.297 121.297 0 0 0 1182.2 68.8 A 36.818 36.818 0 0 0 1187.718 68.408 Q 1191.044 67.903 1193.8 66.75 A 22.642 22.642 0 0 0 1199.122 63.657 A 19.769 19.769 0 0 0 1201.85 61.05 A 22.682 22.682 0 0 0 1205.936 54.045 A 26.898 26.898 0 0 0 1206.5 52.35 A 35.959 35.959 0 0 0 1207.789 45.627 A 45.132 45.132 0 0 0 1208 41.2 A 35.493 35.493 0 0 0 1206.5 30.85 Q 1205 25.9 1201.9 22.05 A 21.631 21.631 0 0 0 1194.885 16.386 A 25.328 25.328 0 0 0 1194 15.95 A 23.096 23.096 0 0 0 1188.062 14.131 A 31.81 31.81 0 0 0 1182.7 13.7 Q 1179.8 13.7 1177.4 13.85 Q 1175 14 1173 14.2 Z M 1522.7 14.2 L 1522.7 68.3 Q 1524.8 68.6 1527.1 68.7 A 107.265 107.265 0 0 0 1530.663 68.794 A 121.297 121.297 0 0 0 1531.9 68.8 A 36.818 36.818 0 0 0 1537.418 68.408 Q 1540.744 67.903 1543.5 66.75 A 22.642 22.642 0 0 0 1548.822 63.657 A 19.769 19.769 0 0 0 1551.55 61.05 A 22.682 22.682 0 0 0 1555.636 54.045 A 26.898 26.898 0 0 0 1556.2 52.35 A 35.959 35.959 0 0 0 1557.489 45.627 A 45.132 45.132 0 0 0 1557.7 41.2 A 35.493 35.493 0 0 0 1556.2 30.85 Q 1554.7 25.9 1551.6 22.05 A 21.631 21.631 0 0 0 1544.585 16.386 A 25.328 25.328 0 0 0 1543.7 15.95 A 23.096 23.096 0 0 0 1537.762 14.131 A 31.81 31.81 0 0 0 1532.4 13.7 Q 1529.5 13.7 1527.1 13.85 Q 1524.7 14 1522.7 14.2 Z M 158.7 43.9 L 147.3 43.9 L 147.3 68.6 Q 152.5 69.2 158.7 69.2 Q 167.7 69.2 172.65 66 Q 177.177 63.073 177.564 57.721 A 14.167 14.167 0 0 0 177.6 56.7 A 11.728 11.728 0 0 0 176.728 52.1 Q 175.626 49.487 173.133 47.612 A 14.027 14.027 0 0 0 172.7 47.3 A 16.7 16.7 0 0 0 168.026 45.099 Q 164.103 43.9 158.7 43.9 Z M 147.3 36.5 L 158.3 36.5 Q 164.088 36.5 168.131 34.756 A 15.329 15.329 0 0 0 170.85 33.25 Q 175.5 30 175.5 24.7 Q 175.5 19.114 171.082 16.217 A 12.106 12.106 0 0 0 170.9 16.1 Q 167.384 13.883 161.882 13.361 A 37.945 37.945 0 0 0 158.3 13.2 Q 155 13.2 152.3 13.35 Q 149.6 13.5 147.3 13.7 L 147.3 36.5 Z M 9.5 13.9 L 9.5 37.4 L 20.5 37.4 A 26.489 26.489 0 0 0 25.423 36.969 Q 29.352 36.225 32.2 34.2 Q 36.7 31 36.7 25 A 9.811 9.811 0 0 0 33.427 17.536 A 13.272 13.272 0 0 0 32.5 16.75 A 13.923 13.923 0 0 0 28.136 14.528 Q 26.207 13.918 23.877 13.67 A 31.944 31.944 0 0 0 20.5 13.5 Q 17.326 13.5 14.762 13.587 A 118.974 118.974 0 0 0 14.4 13.6 Q 11.7 13.7 9.5 13.9 Z M 720.3 13.9 L 720.3 37.4 L 731.3 37.4 A 26.489 26.489 0 0 0 736.223 36.969 Q 740.152 36.225 743 34.2 Q 747.5 31 747.5 25 A 9.811 9.811 0 0 0 744.227 17.536 A 13.272 13.272 0 0 0 743.3 16.75 A 13.923 13.923 0 0 0 738.936 14.528 Q 737.007 13.918 734.677 13.67 A 31.944 31.944 0 0 0 731.3 13.5 Q 728.126 13.5 725.562 13.587 A 118.974 118.974 0 0 0 725.2 13.6 Q 722.5 13.7 720.3 13.9 Z M 1461 13.9 L 1461 37.4 L 1472 37.4 A 26.489 26.489 0 0 0 1476.923 36.969 Q 1480.852 36.225 1483.7 34.2 Q 1488.2 31 1488.2 25 A 9.811 9.811 0 0 0 1484.927 17.536 A 13.272 13.272 0 0 0 1484 16.75 A 13.923 13.923 0 0 0 1479.636 14.528 Q 1477.707 13.918 1475.377 13.67 A 31.944 31.944 0 0 0 1472 13.5 Q 1468.826 13.5 1466.262 13.587 A 118.974 118.974 0 0 0 1465.9 13.6 Q 1463.2 13.7 1461 13.9 Z" vector-effect="non-scaling-stroke"/></g></svg>
