<svg width="1606" height="94" viewBox="0 0 1606 94" xmlns="http://www.w3.org/2000/svg"><g id="svgGroup" stroke-linecap="round" fill-rule="evenodd" font-size="9pt" stroke="#000" stroke-width="0.25mm" fill="#000" style="stroke:#000;stroke-width:0.25mm;fill:#000"><path d="M 1023.3 32 L 1030.8 32 L 1030.8 34.3 Q 1033.4 32 1037 32 L 1037.6 32 Q 1041.927 32 1044.688 33.529 A 8.521 8.521 0 0 1 1047.5 36 A 10.585 10.585 0 0 1 1055.206 32.035 A 13.826 13.826 0 0 1 1056.2 32 L 1056.8 32 A 19.022 19.022 0 0 1 1060.14 32.273 Q 1063.761 32.92 1065.8 35.1 Q 1068.361 37.837 1068.66 44.318 A 38.636 38.636 0 0 1 1068.7 46.1 L 1068.7 82 L 1060.7 82 L 1060.7 46 Q 1060.7 41.9 1059.85 40.3 Q 1059 38.7 1056 38.7 L 1055.4 38.7 Q 1053.352 38.7 1052.166 39.656 A 3.734 3.734 0 0 0 1051.25 40.75 A 9.902 9.902 0 0 0 1050.017 44.989 A 11.557 11.557 0 0 0 1050 45.3 L 1050 82 L 1042 82 L 1042 46 A 27.798 27.798 0 0 0 1041.941 44.121 Q 1041.819 42.33 1041.444 41.211 A 4.282 4.282 0 0 0 1041 40.25 Q 1040 38.7 1037.4 38.7 L 1036.8 38.7 A 8.023 8.023 0 0 0 1035.274 38.835 Q 1033.467 39.185 1032.6 40.45 Q 1031.4 42.2 1031.3 44.4 L 1031.3 82 L 1023.3 82 L 1023.3 32 Z M 1347.3 32 L 1354.8 32 L 1354.8 34.3 Q 1357.4 32 1361 32 L 1361.6 32 Q 1365.927 32 1368.688 33.529 A 8.521 8.521 0 0 1 1371.5 36 A 10.585 10.585 0 0 1 1379.206 32.035 A 13.826 13.826 0 0 1 1380.2 32 L 1380.8 32 A 19.022 19.022 0 0 1 1384.14 32.273 Q 1387.761 32.92 1389.8 35.1 Q 1392.361 37.837 1392.66 44.318 A 38.636 38.636 0 0 1 1392.7 46.1 L 1392.7 82 L 1384.7 82 L 1384.7 46 Q 1384.7 41.9 1383.85 40.3 Q 1383 38.7 1380 38.7 L 1379.4 38.7 Q 1377.352 38.7 1376.166 39.656 A 3.734 3.734 0 0 0 1375.25 40.75 A 9.902 9.902 0 0 0 1374.017 44.989 A 11.557 11.557 0 0 0 1374 45.3 L 1374 82 L 1366 82 L 1366 46 A 27.798 27.798 0 0 0 1365.941 44.121 Q 1365.819 42.33 1365.444 41.211 A 4.282 4.282 0 0 0 1365 40.25 Q 1364 38.7 1361.4 38.7 L 1360.8 38.7 A 8.023 8.023 0 0 0 1359.274 38.835 Q 1357.467 39.185 1356.6 40.45 Q 1355.4 42.2 1355.3 44.4 L 1355.3 82 L 1347.3 82 L 1347.3 32 Z M 18.5 53 L 8.7 53 L 8.7 82 L 0 82 L 0 12 L 18.8 12 A 30.805 30.805 0 0 1 23.594 12.348 Q 28.625 13.143 31.65 15.75 A 11.556 11.556 0 0 1 35.012 20.868 Q 36 23.74 36 27.6 L 36 37.2 Q 36 44.416 32.33 48.166 A 12.487 12.487 0 0 1 27 51.3 L 40.9 82 L 31.4 82 L 18.5 53 Z M 379.7 32 L 387.7 32 L 387.7 34.4 A 11.066 11.066 0 0 1 392.016 32.396 Q 393.709 32 395.7 32 L 400.3 32 A 27.475 27.475 0 0 1 404.744 32.335 Q 409.573 33.128 412.35 35.8 Q 416.3 39.6 416.3 48 L 416.3 82 L 407.8 82 L 407.8 46 A 8.322 8.322 0 0 0 407.574 44.005 A 5.762 5.762 0 0 0 406.05 41.25 A 5.821 5.821 0 0 0 403.053 39.671 A 8.54 8.54 0 0 0 401.3 39.5 L 394.7 39.5 Q 391.4 39.5 389.8 41.25 A 6.786 6.786 0 0 0 388.794 42.655 A 4.96 4.96 0 0 0 388.2 45 L 388.2 82 L 379.7 82 L 379.7 32 Z M 1459.7 32 L 1467.7 32 L 1467.7 34.4 A 11.066 11.066 0 0 1 1472.016 32.396 Q 1473.709 32 1475.7 32 L 1480.3 32 A 27.475 27.475 0 0 1 1484.744 32.335 Q 1489.573 33.128 1492.35 35.8 Q 1496.3 39.6 1496.3 48 L 1496.3 82 L 1487.8 82 L 1487.8 46 A 8.322 8.322 0 0 0 1487.574 44.005 A 5.762 5.762 0 0 0 1486.05 41.25 A 5.821 5.821 0 0 0 1483.053 39.671 A 8.54 8.54 0 0 0 1481.3 39.5 L 1474.7 39.5 Q 1471.4 39.5 1469.8 41.25 A 6.786 6.786 0 0 0 1468.794 42.655 A 4.96 4.96 0 0 0 1468.2 45 L 1468.2 82 L 1459.7 82 L 1459.7 32 Z M 507.7 82 L 504.3 82 A 27.475 27.475 0 0 1 499.856 81.665 Q 495.027 80.872 492.25 78.2 Q 488.3 74.4 488.3 66 L 488.3 32 L 496.8 32 L 496.8 68 A 8.322 8.322 0 0 0 497.026 69.995 A 5.762 5.762 0 0 0 498.55 72.75 A 5.821 5.821 0 0 0 501.547 74.329 A 8.54 8.54 0 0 0 503.3 74.5 L 508.7 74.5 A 10.182 10.182 0 0 0 510.455 74.359 Q 512.36 74.025 513.45 72.9 A 6.62 6.62 0 0 0 514.633 71.26 A 5.585 5.585 0 0 0 515.2 69.3 L 515.2 32 L 523.7 32 L 523.7 82 L 515.7 82 L 515.7 79.7 A 12.668 12.668 0 0 1 510.401 81.792 A 16.911 16.911 0 0 1 507.7 82 Z M 165.9 65 L 165.9 29 Q 165.9 22.965 168.244 19.073 A 12.622 12.622 0 0 1 170.55 16.25 Q 175.2 12 183.9 12 L 198.1 12 L 198.1 19.6 L 182.9 19.6 A 10.154 10.154 0 0 0 180.223 19.936 A 7.628 7.628 0 0 0 176.9 21.8 A 7.419 7.419 0 0 0 175.122 24.35 A 7.174 7.174 0 0 0 174.6 27.1 L 174.6 66.9 A 7.044 7.044 0 0 0 176.758 72.062 A 8.908 8.908 0 0 0 176.9 72.2 A 7.812 7.812 0 0 0 181.19 74.271 A 10.916 10.916 0 0 0 182.9 74.4 L 198.1 74.4 L 198.1 82 L 183.9 82 Q 177.718 82 173.581 79.854 A 14.067 14.067 0 0 1 170.55 77.75 A 13.425 13.425 0 0 1 166.798 71.65 Q 166.125 69.464 165.956 66.816 A 28.627 28.627 0 0 1 165.9 65 Z M 330.6 74.7 L 339.6 74.7 L 339.6 19.3 L 330.6 19.3 L 330.6 12 L 357.3 12 L 357.3 19.3 L 348.3 19.3 L 348.3 74.7 L 357.3 74.7 L 357.3 82 L 330.6 82 L 330.6 74.7 Z M 939.2 0 L 948 0 Q 943.419 5.535 941.115 9.385 A 35.46 35.46 0 0 0 940.9 9.75 Q 938.6 13.7 937.55 18.6 A 39.875 39.875 0 0 0 936.952 22.311 Q 936.5 26.181 936.5 31.3 L 936.5 62.7 A 95.054 95.054 0 0 0 936.624 67.72 Q 936.861 72.184 937.55 75.4 A 31.264 31.264 0 0 0 939.585 81.688 A 27.48 27.48 0 0 0 940.9 84.25 Q 943.2 88.2 948 94 L 939.2 94 Q 933.9 88.5 930.95 81.3 A 34.359 34.359 0 0 1 929.152 75.281 Q 928 69.75 928 62.5 L 928 31.5 Q 928 23.349 929.456 17.371 A 32.787 32.787 0 0 1 930.95 12.7 Q 933.9 5.5 939.2 0 Z M 1098.8 94 L 1090 94 Q 1094.581 88.465 1096.885 84.615 A 35.46 35.46 0 0 0 1097.1 84.25 Q 1099.4 80.3 1100.45 75.4 A 39.875 39.875 0 0 0 1101.048 71.689 Q 1101.5 67.819 1101.5 62.7 L 1101.5 31.3 A 95.054 95.054 0 0 0 1101.376 26.28 Q 1101.139 21.816 1100.45 18.6 A 31.264 31.264 0 0 0 1098.415 12.312 A 27.48 27.48 0 0 0 1097.1 9.75 Q 1094.8 5.8 1090 0 L 1098.8 0 Q 1104.1 5.5 1107.05 12.7 Q 1110 19.9 1110 31.5 L 1110 62.5 Q 1110 70.651 1108.544 76.629 A 32.787 32.787 0 0 1 1107.05 81.3 Q 1104.1 88.5 1098.8 94 Z M 560.2 82 L 545.3 82 L 545.3 74.5 L 561.2 74.5 A 10.134 10.134 0 0 0 562.743 74.39 Q 563.537 74.268 564.177 74.008 A 4.32 4.32 0 0 0 565.3 73.35 Q 566.7 72.2 566.7 70 L 566.7 64.7 A 6.801 6.801 0 0 0 566.494 62.947 Q 565.759 60.2 562.4 60.2 L 558.7 60.2 A 25.593 25.593 0 0 1 554.857 59.931 Q 552.897 59.633 551.323 59.003 A 10.449 10.449 0 0 1 548.25 57.15 A 9.36 9.36 0 0 1 545.636 53.137 Q 545.094 51.588 544.903 49.678 A 21.964 21.964 0 0 1 544.8 47.5 L 544.8 44.6 A 18.577 18.577 0 0 1 545.118 41.04 Q 545.898 37.047 548.6 34.95 A 12.259 12.259 0 0 1 552.282 33.04 Q 554.015 32.463 556.138 32.206 A 30.553 30.553 0 0 1 559.8 32 L 573.2 32 L 573.2 39.5 L 558.8 39.5 A 8.842 8.842 0 0 0 557.166 39.642 Q 556.213 39.821 555.458 40.227 A 4.826 4.826 0 0 0 554.8 40.65 Q 553.3 41.8 553.3 44 L 553.3 47.6 A 6.208 6.208 0 0 0 553.425 48.89 Q 553.593 49.678 553.985 50.267 A 3.291 3.291 0 0 0 554.65 51 A 4.789 4.789 0 0 0 556.774 51.976 A 6.759 6.759 0 0 0 558.1 52.1 L 561.5 52.1 A 22.124 22.124 0 0 1 565.375 52.417 Q 567.518 52.799 569.209 53.64 A 10.527 10.527 0 0 1 571.7 55.35 Q 574.817 58.245 575.158 63.638 A 21.598 21.598 0 0 1 575.2 65 L 575.2 69.5 Q 575.2 75.8 571.35 78.9 A 12.536 12.536 0 0 1 567.321 81.019 Q 565.531 81.602 563.356 81.838 A 29.221 29.221 0 0 1 560.2 82 Z M 830.2 82 L 815.3 82 L 815.3 74.5 L 831.2 74.5 A 10.134 10.134 0 0 0 832.743 74.39 Q 833.537 74.268 834.177 74.008 A 4.32 4.32 0 0 0 835.3 73.35 Q 836.7 72.2 836.7 70 L 836.7 64.7 A 6.801 6.801 0 0 0 836.494 62.947 Q 835.759 60.2 832.4 60.2 L 828.7 60.2 A 25.593 25.593 0 0 1 824.857 59.931 Q 822.897 59.633 821.323 59.003 A 10.449 10.449 0 0 1 818.25 57.15 A 9.36 9.36 0 0 1 815.636 53.137 Q 815.094 51.588 814.903 49.678 A 21.964 21.964 0 0 1 814.8 47.5 L 814.8 44.6 A 18.577 18.577 0 0 1 815.118 41.04 Q 815.898 37.047 818.6 34.95 A 12.259 12.259 0 0 1 822.282 33.04 Q 824.015 32.463 826.138 32.206 A 30.553 30.553 0 0 1 829.8 32 L 843.2 32 L 843.2 39.5 L 828.8 39.5 A 8.842 8.842 0 0 0 827.166 39.642 Q 826.213 39.821 825.458 40.227 A 4.826 4.826 0 0 0 824.8 40.65 Q 823.3 41.8 823.3 44 L 823.3 47.6 A 6.208 6.208 0 0 0 823.425 48.89 Q 823.593 49.678 823.985 50.267 A 3.291 3.291 0 0 0 824.65 51 A 4.789 4.789 0 0 0 826.774 51.976 A 6.759 6.759 0 0 0 828.1 52.1 L 831.5 52.1 A 22.124 22.124 0 0 1 835.375 52.417 Q 837.518 52.799 839.209 53.64 A 10.527 10.527 0 0 1 841.7 55.35 Q 844.817 58.245 845.158 63.638 A 21.598 21.598 0 0 1 845.2 65 L 845.2 69.5 Q 845.2 75.8 841.35 78.9 A 12.536 12.536 0 0 1 837.321 81.019 Q 835.531 81.602 833.356 81.838 A 29.221 29.221 0 0 1 830.2 82 Z M 1580.7 72 L 1580.7 19.5 L 1566 19.5 L 1566 12 L 1589.2 12 L 1589.2 71.5 A 5.043 5.043 0 0 0 1589.263 72.329 Q 1589.425 73.297 1590 73.8 Q 1590.725 74.434 1592.352 74.494 A 9.498 9.498 0 0 0 1592.7 74.5 L 1606 74.5 L 1606 82 L 1589.2 82 Q 1585.8 82 1583.25 79.6 Q 1581.25 77.718 1580.819 74.114 A 17.806 17.806 0 0 1 1580.7 72 Z M 607.2 70 L 607.2 39.5 L 597.7 39.5 L 597.7 32 L 607.2 32 L 607.2 20 L 615.7 20 L 615.7 32 L 630.3 32 L 630.3 39.5 L 615.7 39.5 L 615.7 70.5 A 6.94 6.94 0 0 0 615.778 71.577 Q 615.867 72.146 616.061 72.593 A 2.615 2.615 0 0 0 616.8 73.6 A 3.402 3.402 0 0 0 617.842 74.166 Q 618.784 74.495 620.158 74.5 A 11.697 11.697 0 0 0 620.2 74.5 L 630.3 74.5 L 630.3 82 L 617.7 82 A 12.553 12.553 0 0 1 614.486 81.612 A 8.607 8.607 0 0 1 609.9 78.7 Q 607.304 75.527 607.204 70.412 A 21.123 21.123 0 0 1 607.2 70 Z M 985.2 70 L 985.2 39.5 L 975.7 39.5 L 975.7 32 L 985.2 32 L 985.2 20 L 993.7 20 L 993.7 32 L 1008.3 32 L 1008.3 39.5 L 993.7 39.5 L 993.7 70.5 A 6.94 6.94 0 0 0 993.778 71.577 Q 993.867 72.146 994.061 72.593 A 2.615 2.615 0 0 0 994.8 73.6 A 3.402 3.402 0 0 0 995.842 74.166 Q 996.784 74.495 998.158 74.5 A 11.697 11.697 0 0 0 998.2 74.5 L 1008.3 74.5 L 1008.3 82 L 995.7 82 A 12.553 12.553 0 0 1 992.486 81.612 A 8.607 8.607 0 0 1 987.9 78.7 Q 985.304 75.527 985.204 70.412 A 21.123 21.123 0 0 1 985.2 70 Z M 1201.2 70 L 1201.2 39.5 L 1191.7 39.5 L 1191.7 32 L 1201.2 32 L 1201.2 20 L 1209.7 20 L 1209.7 32 L 1224.3 32 L 1224.3 39.5 L 1209.7 39.5 L 1209.7 70.5 A 6.94 6.94 0 0 0 1209.778 71.577 Q 1209.867 72.146 1210.061 72.593 A 2.615 2.615 0 0 0 1210.8 73.6 A 3.402 3.402 0 0 0 1211.842 74.166 Q 1212.784 74.495 1214.158 74.5 A 11.697 11.697 0 0 0 1214.2 74.5 L 1224.3 74.5 L 1224.3 82 L 1211.7 82 A 12.553 12.553 0 0 1 1208.486 81.612 A 8.607 8.607 0 0 1 1203.9 78.7 Q 1201.304 75.527 1201.204 70.412 A 21.123 21.123 0 0 1 1201.2 70 Z M 1535.1 82 L 1526.2 82 A 29.968 29.968 0 0 1 1522.26 81.76 Q 1517.903 81.18 1515.449 79.202 A 8.56 8.56 0 0 1 1515.15 78.95 A 8.834 8.834 0 0 1 1512.853 75.602 Q 1511.717 72.821 1511.7 68.629 A 31.477 31.477 0 0 1 1511.7 68.5 L 1511.7 66.5 Q 1511.7 53.316 1522.264 51.346 A 22.048 22.048 0 0 1 1526.3 51 L 1538.7 51 L 1538.7 46 A 8.114 8.114 0 0 0 1538.475 44.034 A 5.485 5.485 0 0 0 1536.8 41.2 Q 1534.9 39.5 1531.2 39.5 L 1515.7 39.5 L 1515.7 32 L 1530.2 32 A 31.686 31.686 0 0 1 1534.85 32.318 Q 1537.228 32.671 1539.135 33.42 A 12.469 12.469 0 0 1 1543.05 35.8 Q 1546.304 38.78 1547.007 44.588 A 28.463 28.463 0 0 1 1547.2 48 L 1547.2 72 A 3.097 3.097 0 0 0 1547.336 72.943 A 2.396 2.396 0 0 0 1548.35 74.25 Q 1549.322 74.884 1551.403 74.982 A 16.974 16.974 0 0 0 1552.2 75 L 1552.2 82 L 1546.7 82 A 4.977 4.977 0 0 1 1545.426 81.824 Q 1544.868 81.676 1544.27 81.404 A 9.522 9.522 0 0 1 1543.85 81.2 Q 1542.3 80.4 1541.2 79 Q 1538.956 81.927 1535.284 81.998 A 9.49 9.49 0 0 1 1535.1 82 Z M 129.5 82 L 109.5 82 L 109.5 12 L 128.3 12 Q 136.972 12 141.134 15.418 A 10.443 10.443 0 0 1 141.35 15.6 Q 145.5 19.2 145.5 27.6 L 145.5 33.3 A 17.05 17.05 0 0 1 144.854 38.132 A 12.373 12.373 0 0 1 140 44.9 A 12.01 12.01 0 0 1 146.189 53.638 A 19.333 19.333 0 0 1 146.5 57.2 L 146.5 66.2 A 29.611 29.611 0 0 1 146.221 70.416 Q 145.479 75.558 142.762 78.2 A 9.022 9.022 0 0 1 142.55 78.4 Q 138.846 81.776 130.613 81.986 A 43.626 43.626 0 0 1 129.5 82 Z M 454.5 82 L 450.4 82 A 32.875 32.875 0 0 1 445.822 81.703 Q 443.47 81.372 441.583 80.669 A 12.356 12.356 0 0 1 437.5 78.25 Q 433.4 74.5 433.4 66 L 433.4 48 A 26.97 26.97 0 0 1 433.728 43.639 Q 434.567 38.531 437.55 35.8 Q 440.613 32.995 446.154 32.261 A 32.376 32.376 0 0 1 450.4 32 L 462 32 L 462 12 L 470.5 12 L 470.5 82 L 462.5 82 L 462.5 79.7 A 12.668 12.668 0 0 1 457.201 81.792 A 16.911 16.911 0 0 1 454.5 82 Z M 651 74.5 L 658.3 74.5 L 658.3 39.5 L 651 39.5 L 651 32 L 666.3 32 L 666.3 34.7 A 11.907 11.907 0 0 1 673.006 32.053 A 15.401 15.401 0 0 1 674.3 32 L 684.6 32 L 684.6 40 L 673.3 40 A 7.92 7.92 0 0 0 671.393 40.215 A 5.111 5.111 0 0 0 668.5 42.05 A 9.186 9.186 0 0 0 667.463 43.692 A 6.421 6.421 0 0 0 666.8 46.2 L 666.8 74.5 L 677.7 74.5 L 677.7 82 L 651 82 L 651 74.5 Z M 1299 74.5 L 1306.3 74.5 L 1306.3 39.5 L 1299 39.5 L 1299 32 L 1314.3 32 L 1314.3 34.7 A 11.907 11.907 0 0 1 1321.006 32.053 A 15.401 15.401 0 0 1 1322.3 32 L 1332.6 32 L 1332.6 40 L 1321.3 40 A 7.92 7.92 0 0 0 1319.393 40.215 A 5.111 5.111 0 0 0 1316.5 42.05 A 9.186 9.186 0 0 0 1315.463 43.692 A 6.421 6.421 0 0 0 1314.8 46.2 L 1314.8 74.5 L 1325.7 74.5 L 1325.7 82 L 1299 82 L 1299 74.5 Z M 758.4 66 L 758.4 48 Q 758.4 39.864 761.712 36.113 A 9.139 9.139 0 0 1 762.1 35.7 A 10.761 10.761 0 0 1 765.826 33.339 Q 769.227 32 774.4 32 L 779.1 32 Q 784.39 32 787.765 34.193 A 10.953 10.953 0 0 1 789.85 35.95 Q 792.853 39.2 793.385 44.921 A 27.862 27.862 0 0 1 793.5 47.5 L 793.5 60.5 L 766.9 60.5 L 766.9 68 A 8.114 8.114 0 0 0 767.125 69.966 A 5.485 5.485 0 0 0 768.8 72.8 Q 770.7 74.5 774.4 74.5 L 790.3 74.5 L 790.3 82 L 775.4 82 A 32.875 32.875 0 0 1 770.822 81.703 Q 768.47 81.372 766.583 80.669 A 12.356 12.356 0 0 1 762.5 78.25 Q 758.4 74.5 758.4 66 Z M 1244.4 66 L 1244.4 48 Q 1244.4 39.864 1247.712 36.113 A 9.139 9.139 0 0 1 1248.1 35.7 A 10.761 10.761 0 0 1 1251.826 33.339 Q 1255.227 32 1260.4 32 L 1265.1 32 Q 1270.39 32 1273.765 34.193 A 10.953 10.953 0 0 1 1275.85 35.95 Q 1278.853 39.2 1279.385 44.921 A 27.862 27.862 0 0 1 1279.5 47.5 L 1279.5 60.5 L 1252.9 60.5 L 1252.9 68 A 8.114 8.114 0 0 0 1253.125 69.966 A 5.485 5.485 0 0 0 1254.8 72.8 Q 1256.7 74.5 1260.4 74.5 L 1276.3 74.5 L 1276.3 82 L 1261.4 82 A 32.875 32.875 0 0 1 1256.822 81.703 Q 1254.47 81.372 1252.583 80.669 A 12.356 12.356 0 0 1 1248.5 78.25 Q 1244.4 74.5 1244.4 66 Z M 76 82 L 72 82 Q 65.818 82 61.681 79.854 A 14.067 14.067 0 0 1 58.65 77.75 A 13.425 13.425 0 0 1 54.898 71.65 Q 54.225 69.464 54.056 66.816 A 28.627 28.627 0 0 1 54 65 L 54 29 Q 54 22.965 56.344 19.073 A 12.622 12.622 0 0 1 58.65 16.25 Q 63.3 12 72 12 L 76 12 Q 82.182 12 86.319 14.146 A 14.067 14.067 0 0 1 89.35 16.25 A 13.425 13.425 0 0 1 93.102 22.35 Q 93.775 24.536 93.944 27.184 A 28.627 28.627 0 0 1 94 29 L 94 65 Q 94 71.035 91.656 74.927 A 12.622 12.622 0 0 1 89.35 77.75 Q 84.7 82 76 82 Z M 238 82 L 234 82 Q 227.818 82 223.681 79.854 A 14.067 14.067 0 0 1 220.65 77.75 A 13.425 13.425 0 0 1 216.898 71.65 Q 216.225 69.464 216.056 66.816 A 28.627 28.627 0 0 1 216 65 L 216 29 Q 216 22.965 218.344 19.073 A 12.622 12.622 0 0 1 220.65 16.25 Q 225.3 12 234 12 L 238 12 Q 244.182 12 248.319 14.146 A 14.067 14.067 0 0 1 251.35 16.25 A 13.425 13.425 0 0 1 255.102 22.35 Q 255.775 24.536 255.944 27.184 A 28.627 28.627 0 0 1 256 29 L 256 65 Q 256 71.035 253.656 74.927 A 12.622 12.622 0 0 1 251.35 77.75 Q 246.7 82 238 82 Z M 717.7 39.5 L 703 39.5 L 703 32 L 726.2 32 L 726.2 74.5 L 741 74.5 L 741 82 L 717.7 82 L 717.7 39.5 Z M 1419.7 39.5 L 1405 39.5 L 1405 32 L 1428.2 32 L 1428.2 74.5 L 1443 74.5 L 1443 82 L 1419.7 82 L 1419.7 39.5 Z M 77 19.6 L 71 19.6 A 10.154 10.154 0 0 0 68.323 19.936 A 7.628 7.628 0 0 0 65 21.8 A 7.419 7.419 0 0 0 63.222 24.35 A 7.174 7.174 0 0 0 62.7 27.1 L 62.7 66.9 A 7.044 7.044 0 0 0 64.858 72.062 A 8.908 8.908 0 0 0 65 72.2 A 7.812 7.812 0 0 0 69.29 74.271 A 10.916 10.916 0 0 0 71 74.4 L 77 74.4 A 10.154 10.154 0 0 0 79.677 74.064 A 7.628 7.628 0 0 0 83 72.2 A 7.419 7.419 0 0 0 84.778 69.65 A 7.174 7.174 0 0 0 85.3 66.9 L 85.3 27.1 A 7.044 7.044 0 0 0 83.142 21.938 A 8.908 8.908 0 0 0 83 21.8 A 7.812 7.812 0 0 0 78.71 19.729 A 10.916 10.916 0 0 0 77 19.6 Z M 239 19.6 L 233 19.6 A 10.154 10.154 0 0 0 230.323 19.936 A 7.628 7.628 0 0 0 227 21.8 A 7.419 7.419 0 0 0 225.222 24.35 A 7.174 7.174 0 0 0 224.7 27.1 L 224.7 66.9 A 7.044 7.044 0 0 0 226.858 72.062 A 8.908 8.908 0 0 0 227 72.2 A 7.812 7.812 0 0 0 231.29 74.271 A 10.916 10.916 0 0 0 233 74.4 L 239 74.4 A 10.154 10.154 0 0 0 241.677 74.064 A 7.628 7.628 0 0 0 245 72.2 A 7.419 7.419 0 0 0 246.778 69.65 A 7.174 7.174 0 0 0 247.3 66.9 L 247.3 27.1 A 7.044 7.044 0 0 0 245.142 21.938 A 8.908 8.908 0 0 0 245 21.8 A 7.812 7.812 0 0 0 240.71 19.729 A 10.916 10.916 0 0 0 239 19.6 Z M 462 69 L 462 39.5 L 449.4 39.5 Q 446.939 39.5 445.275 40.252 A 5.731 5.731 0 0 0 443.8 41.2 A 5.54 5.54 0 0 0 442.07 44.272 A 8.337 8.337 0 0 0 441.9 46 L 441.9 68 A 8.114 8.114 0 0 0 442.125 69.966 A 5.485 5.485 0 0 0 443.8 72.8 Q 445.7 74.5 449.4 74.5 L 455.5 74.5 Q 458.8 74.5 460.4 72.75 A 6.786 6.786 0 0 0 461.406 71.345 A 4.96 4.96 0 0 0 462 69 Z M 130.5 49.1 L 118.2 49.1 L 118.2 74.5 L 130.4 74.5 A 13.077 13.077 0 0 0 132.455 74.35 Q 133.52 74.18 134.366 73.818 A 5.32 5.32 0 0 0 136 72.75 Q 137.8 71 137.8 67.2 L 137.8 56.3 A 8.795 8.795 0 0 0 137.519 54.015 A 6.362 6.362 0 0 0 135.8 51.05 A 6.732 6.732 0 0 0 132.207 49.246 A 9.577 9.577 0 0 0 130.5 49.1 Z M 20 19.5 L 8.7 19.5 L 8.7 45.5 L 20 45.5 A 13.12 13.12 0 0 0 21.975 45.362 Q 23.007 45.204 23.829 44.867 A 5.173 5.173 0 0 0 25.55 43.75 A 5.274 5.274 0 0 0 26.746 41.826 Q 27.3 40.338 27.3 38.2 L 27.3 26.7 A 13.041 13.041 0 0 0 27.162 24.729 Q 27.007 23.719 26.679 22.918 A 4.99 4.99 0 0 0 25.55 21.2 A 5.254 5.254 0 0 0 23.709 20.068 Q 22.905 19.766 21.909 19.625 A 13.613 13.613 0 0 0 20 19.5 Z M 129.5 19.5 L 118.2 19.5 L 118.2 41.6 L 129.5 41.6 A 7.917 7.917 0 0 0 132.258 41.135 A 7.049 7.049 0 0 0 134.7 39.6 A 6.665 6.665 0 0 0 136.726 35.492 A 9.324 9.324 0 0 0 136.8 34.3 L 136.8 26.7 A 13.041 13.041 0 0 0 136.662 24.729 Q 136.507 23.719 136.179 22.918 A 4.99 4.99 0 0 0 135.05 21.2 A 5.254 5.254 0 0 0 133.209 20.068 Q 132.405 19.766 131.409 19.625 A 13.613 13.613 0 0 0 129.5 19.5 Z M 1538.7 69.5 L 1538.7 58.5 L 1526.2 58.5 Q 1523.6 58.5 1521.9 60.2 Q 1520.2 61.9 1520.2 64.5 L 1520.2 69.5 A 8.962 8.962 0 0 0 1520.295 70.852 Q 1520.404 71.564 1520.638 72.13 A 3.544 3.544 0 0 0 1521.4 73.3 Q 1522.6 74.5 1525.2 74.5 L 1534.1 74.5 Q 1536.414 74.5 1537.419 73.667 A 2.063 2.063 0 0 0 1537.9 73.1 Q 1538.7 71.7 1538.7 69.5 Z M 785.2 53 L 785.2 45.5 Q 785.2 42.9 783.5 41.2 Q 781.8 39.5 779.2 39.5 L 773.4 39.5 Q 769.974 39.5 768.495 40.994 A 3.595 3.595 0 0 0 768.35 41.15 Q 767.21 42.448 766.966 44.704 A 12.091 12.091 0 0 0 766.9 46 L 766.9 53 L 785.2 53 Z M 1271.2 53 L 1271.2 45.5 Q 1271.2 42.9 1269.5 41.2 Q 1267.8 39.5 1265.2 39.5 L 1259.4 39.5 Q 1255.974 39.5 1254.495 40.994 A 3.595 3.595 0 0 0 1254.35 41.15 Q 1253.21 42.448 1252.966 44.704 A 12.091 12.091 0 0 0 1252.9 46 L 1252.9 53 L 1271.2 53 Z M 717.2 12 L 726.7 12 L 726.7 21 L 717.2 21 L 717.2 12 Z M 1419.2 12 L 1428.7 12 L 1428.7 21 L 1419.2 21 L 1419.2 12 Z" vector-effect="non-scaling-stroke"/></g></svg>
